<?xml version="1.0" encoding="utf-8"?>
<!-- Generator: Adobe Illustrator 17.0.0, SVG Export Plug-In . SVG Version: 6.00 Build 0)  -->
<!DOCTYPE svg PUBLIC "-//W3C//DTD SVG 1.1//EN" "http://www.w3.org/Graphics/SVG/1.1/DTD/svg11.dtd">
<svg version="1.1" id="レイヤー_1" xmlns="http://www.w3.org/2000/svg" xmlns:xlink="http://www.w3.org/1999/xlink" x="0px"
	 y="0px" width="800px" height="400px" viewBox="0 0 800 400" enable-background="new 0 0 800 400" xml:space="preserve">
<g>
	<g>
		<path fill="#FFFFFF" d="M135.893,269.215c-0.197,0.34-0.392,0.634-1.418,2.491c-2.05,3.712-5.177,8.597-7.766,12.017
			c13.532-0.44,13.532-0.44,23.35-1.32c-2.931-3.076-4.836-4.786-8.452-7.571l1.662-1.221c5.862,5.08,8.941,8.06,13.97,13.775
			l-1.708,1.515c-2.004-2.589-2.835-3.567-4.104-5.032c-10.16,1.074-20.615,1.71-31.021,1.954c-0.684,0-1.366,0.048-2.491,0.195
			l-0.586-2.442c1.513,0.195,2.296,0.245,4.348,0.245c0.831,0,1.171,0,2.589-0.05c4.543-5.911,8.255-12.113,9.281-15.582
			L135.893,269.215z M124.852,309.76h-2.296c0.195-1.368,0.292-2.638,0.292-3.909V294.47c0-1.32-0.048-2.346-0.244-3.567
			c0.978,0.147,1.758,0.197,3.126,0.197h22.812c1.368,0,2.151-0.05,3.126-0.197c-0.195,1.173-0.244,2.199-0.244,3.567v11.381
			c0,1.271,0.098,2.541,0.294,3.909h-2.296v-3.078h-24.573V309.76z M149.425,304.923v-12.017h-24.573v12.017H149.425z"/>
		<path fill="#FFFFFF" d="M179.981,282.111c-1.66,0-2.784,0.097-4.152,0.292v-2.247c1.27,0.197,2.442,0.294,4.201,0.294h3.615
			v-7.376c-2.394,0.537-3.615,0.732-6.643,1.221c-0.342-0.684-0.586-1.026-1.125-1.662c7.182-0.831,12.751-2.442,15.29-4.348
			l1.368,1.758c-0.195,0.098-0.195,0.098-0.634,0.294c-1.857,0.831-4.056,1.612-6.351,2.199v7.913h3.567
			c1.513,0,2.344-0.048,3.271-0.244v2.149c-0.976-0.195-1.903-0.244-3.271-0.244h-3.519c0.392,1.123,0.978,2.149,2.102,3.76
			c1.416,2.004,2.491,3.126,4.688,4.836c-0.586,0.587-0.976,0.978-1.318,1.563c-3.126-2.931-4.543-4.885-5.764-7.864
			c0.195,5.569,0.244,6.448,0.244,7.718v12.946c0,2.149,0.098,3.762,0.294,5.275h-2.493c0.197-1.563,0.294-3.223,0.294-5.275
			v-12.359c0-2.394,0.098-4.983,0.245-8.206c-1.173,5.275-3.909,10.649-7.768,15.29c-0.489-0.684-0.783-1.026-1.416-1.563
			c2.197-2.394,3.322-4.104,5.275-7.621c1.416-2.541,2.784-6.106,3.37-8.5H179.981z M211.197,305.265
			c0,2.149,0.097,3.712,0.292,4.885h-2.587c0.244-1.074,0.292-2.344,0.292-4.983v-7.864l-13.433,3.322
			c-1.905,0.489-3.273,0.879-4.348,1.32l-0.342-2.296c1.221-0.099,2.638-0.342,4.494-0.783l13.628-3.418v-22.472
			c0-2.394-0.097-3.664-0.292-4.69h2.587c-0.195,1.221-0.292,2.589-0.292,4.641v22.032l1.173-0.294
			c2.149-0.537,3.418-0.928,4.348-1.368l0.342,2.346c-1.271,0.097-2.589,0.342-4.446,0.829l-1.416,0.342V305.265z M202.941,292.418
			c-2.784-3.175-5.08-5.128-8.647-7.327l1.368-1.416c4.203,2.881,5.862,4.299,8.55,7.279L202.941,292.418z M204.504,281.036
			c-2.833-3.42-5.08-5.424-8.744-7.671l1.368-1.416c3.81,2.638,5.959,4.543,8.597,7.524L204.504,281.036z"/>
		<path fill="#FFFFFF" d="M255.092,281.524c1.125,4.446,1.809,6.253,3.372,9.331c3.907,7.522,9.524,12.848,17.34,16.364
			c-0.634,0.734-0.928,1.221-1.416,2.052c-6.595-3.517-10.894-7.132-14.312-11.918c-2.638-3.762-4.593-8.061-5.961-13.045
			c-0.976,6.792-3.37,12.067-7.474,16.708c-3.126,3.517-6.643,5.959-12.017,8.353c-0.39-0.783-0.829-1.32-1.368-1.857
			c5.569-2.346,8.842-4.543,11.968-8.06c4.203-4.641,6.253-9.673,7.23-17.929h-13.58c-2.296,0-3.567,0.098-4.836,0.342v-2.539
			c1.074,0.243,2.589,0.342,4.983,0.342h13.628c0.147-2.346,0.195-3.615,0.195-6.156c0-1.758-0.147-3.615-0.292-4.738h2.686
			c-0.195,1.465-0.294,2.638-0.342,4.591c0,2.442-0.098,4.056-0.244,6.303h15.093c2.247,0,3.762-0.098,4.836-0.342v2.539
			c-1.27-0.243-2.589-0.342-4.786-0.342H255.092z"/>
		<path fill="#FFFFFF" d="M295.811,281.721c-1.66,0-2.442,0.048-3.615,0.244v-2.149c1.026,0.195,2.004,0.244,3.714,0.244h3.859
			v-7.573c-2.442,0.636-3.273,0.831-6.058,1.368c-0.342-0.831-0.439-1.026-1.074-1.71c6.691-1.026,11.578-2.539,13.678-4.249
			l1.368,1.758c-3.177,1.368-4.056,1.71-6.009,2.296v8.11h2.883c1.416,0,2.296-0.048,3.223-0.195v2.052
			c-1.074-0.147-1.857-0.195-3.223-0.195h-2.835c1.271,3.517,3.03,6.496,5.716,9.524c-0.586,0.537-0.879,0.879-1.318,1.563
			c-2.444-3.175-3.567-5.323-4.69-8.987c0.195,5.569,0.243,6.496,0.243,7.766v13.288c0,2.686,0.048,4.054,0.294,5.323h-2.493
			c0.195-1.318,0.294-2.734,0.294-5.323v-12.848c0-2.394,0.048-4.935,0.244-8.206c-1.221,5.569-3.859,10.844-7.766,15.435
			c-0.489-0.732-0.831-1.123-1.416-1.563c3.76-3.859,7.034-9.965,8.548-15.972H295.811z M328.737,306.34
			c2.052,0,3.615-0.097,5.032-0.292v2.344c-1.467-0.195-2.931-0.294-5.032-0.294h-18.515c-2.002,0-3.517,0.098-4.933,0.294v-2.296
			c1.173,0.195,2.589,0.244,4.933,0.244h8.695v-7.376h-5.52c-2.344,0-3.565,0.048-4.885,0.244v-2.247
			c1.173,0.195,2.541,0.245,4.885,0.245h5.52v-6.351h-6.007c-1.905,0-3.126,0.048-4.398,0.245v-2.247
			c1.32,0.195,2.346,0.244,4.446,0.244h14.996c2.052,0,3.468-0.098,4.935-0.294v2.346c-1.563-0.195-2.981-0.294-4.935-0.294h-7.084
			v6.351h6.009c2.346,0,3.712-0.05,4.933-0.245v2.247c-1.366-0.195-2.539-0.244-4.933-0.244h-6.009v7.376H328.737z M330.837,280.644
			c0,2.004,0.048,3.078,0.195,4.006c-1.368-0.097-2.491-0.145-4.396-0.145h-12.361c-1.758,0-2.929,0.048-4.297,0.145
			c0.147-1.171,0.195-2.197,0.195-3.907v-6.448c0-1.613-0.048-2.638-0.195-3.859c1.221,0.145,2.344,0.195,4.249,0.195h12.604
			c1.954,0,2.98-0.05,4.201-0.195c-0.147,1.123-0.195,2.05-0.195,3.859V280.644z M312.078,272.39v10.355h16.853V272.39H312.078z"/>
		<path fill="#FFFFFF" d="M356.314,279.375c-1.857,0-3.223,0.098-4.543,0.294v-2.346c1.221,0.195,2.541,0.294,4.543,0.294h19.931
			c-0.048-1.515-0.048-1.515-0.098-5.178c0-1.27-0.097-2.442-0.244-3.664h2.589c-0.195,0.879-0.294,2.052-0.294,4.788
			c0,1.318,0,2.1,0.048,4.054h9.283c2.002,0,3.322-0.098,4.543-0.294v2.346c-1.27-0.195-2.686-0.294-4.543-0.294h-9.184
			c0.39,7.084,1.173,12.164,2.638,16.805c1.173,3.859,2.688,6.985,4.201,8.842c0.879,1.123,2.1,2.002,2.688,2.002
			c1.221,0,2.247-2.736,3.028-8.011c0.734,0.732,1.271,1.125,1.955,1.467c-1.418,6.398-2.688,8.597-4.983,8.597
			c-3.126,0-6.448-4.591-8.794-12.164c-1.612-5.227-2.344-10.015-2.784-17.537H356.314z M357.73,289.048
			c-1.807,0-2.833,0.048-4.006,0.244v-2.247c1.125,0.195,2.151,0.245,4.006,0.245h12.556c1.855,0,2.833-0.05,3.955-0.245v2.247
			c-1.171-0.195-2.149-0.244-3.955-0.244h-5.472v13.677c3.81-0.829,5.911-1.366,10.942-2.784v2.004
			c-6.253,1.71-14.9,3.664-20.322,4.591c-1.026,0.197-1.71,0.342-2.686,0.587l-0.636-2.394c2.199,0,2.344,0,10.747-1.612v-14.069
			H357.73z M387.529,275.808c-2.296-2.245-3.714-3.322-6.546-5.08l1.32-1.27c2.833,1.758,4.152,2.784,6.448,4.836L387.529,275.808z"
			/>
		<path fill="#FFFFFF" d="M409.88,276.15c1.074,0.197,1.954,0.245,3.762,0.245h8.548c1.905,0,2.784-0.048,3.762-0.245v2.199
			c-0.929-0.147-1.809-0.195-3.322-0.195h-8.989c-1.662,0-2.736,0.048-3.762,0.195V276.15z M424.438,271.802
			c-1.123-0.145-2.052-0.195-3.42-0.195h-6.058c-1.366,0-2.392,0.05-3.418,0.195v-2.149c1.171,0.195,1.855,0.244,3.418,0.244h6.058
			c1.515,0,2.247-0.048,3.42-0.244V271.802z M424.339,284.748c-1.221-0.147-1.954-0.195-3.468-0.195h-5.764
			c-1.563,0-2.442,0.048-3.517,0.195v-2.1c1.026,0.147,1.807,0.195,3.517,0.195h5.764c1.662,0,2.444-0.048,3.468-0.195V284.748z
			 M424.339,291.196c-1.221-0.147-1.954-0.195-3.468-0.195h-5.764c-1.612,0-2.394,0.048-3.517,0.195v-2.1
			c1.026,0.147,1.807,0.195,3.517,0.195h5.764c1.662,0,2.444-0.048,3.468-0.195V291.196z M411.884,299.55
			c0-1.612-0.05-2.784-0.245-4.006c1.271,0.147,2.442,0.195,3.81,0.195h5.227c2.1,0,2.639,0,3.519-0.147
			c-0.098,1.125-0.147,2.1-0.147,3.81v6.204c0,1.416,0.048,2.442,0.243,3.909h-2.002v-2.004h-8.599v2.638h-2.1
			c0.195-1.368,0.294-2.539,0.294-4.543V299.55z M413.69,305.851h8.599v-8.45h-8.599V305.851z M448.032,289.535
			c-0.342,0.539-0.44,0.783-0.831,1.662c-1.465,3.225-3.907,6.643-7.084,9.916c3.664,3.03,6.985,4.788,12.262,6.595
			c-0.586,0.684-0.928,1.221-1.32,1.954c-5.716-2.392-8.5-4.006-12.359-7.279c-3.468,3.177-7.084,5.374-12.212,7.426
			c-0.537-0.928-0.783-1.221-1.368-1.66c5.275-1.905,8.452-3.714,12.262-6.987c-3.665-3.613-5.032-5.617-7.377-11.138
			c-1.465,0.05-2.1,0.098-3.126,0.245v-2.151c0.978,0.195,1.954,0.245,3.468,0.245h12.749c1.905,0,2.931-0.05,3.615-0.195
			L448.032,289.535z M440.07,269.897c1.71,0,2.833-0.048,4.006-0.195c-0.147,1.368-0.195,2.541-0.195,4.69v7.426
			c0,0.928,0.39,1.125,2.344,1.125c2.102,0,2.784-0.147,3.078-0.636c0.489-0.831,0.783-2.442,0.879-5.422
			c0.684,0.586,1.125,0.829,1.809,1.074c-0.294,3.712-0.831,5.422-1.809,6.106c-0.634,0.39-1.905,0.586-4.054,0.586
			c-3.372,0-4.152-0.439-4.152-2.392v-10.699h-8.402c-0.147,5.47-0.734,8.206-2.346,11.089c-0.978,1.66-1.954,2.686-4.054,4.249
			c-0.587-0.684-0.978-0.976-1.613-1.368c2.736-1.708,4.056-3.322,5.082-6.106c0.684-1.905,1.026-4.201,1.026-7.034
			c0-0.831-0.099-1.613-0.245-2.688c1.467,0.147,2.442,0.195,3.664,0.195H440.07z M431.813,290.024
			c1.809,4.152,3.615,6.742,6.888,9.868c3.273-3.223,4.983-5.665,6.937-9.868H431.813z"/>
		<path fill="#FFFFFF" d="M468.528,276.444c1.271,0.195,2.541,0.294,4.152,0.294h10.894c1.857,0,3.03-0.098,4.152-0.294v2.296
			c-1.221-0.145-2.638-0.243-4.152-0.243h-10.942c-1.465,0-2.833,0.098-4.104,0.243V276.444z M485.528,272.291
			c-1.123-0.147-2.149-0.195-3.565-0.195h-7.426c-1.465,0-2.491,0.048-3.664,0.195v-2.149c1.074,0.195,2.052,0.243,3.664,0.243
			h7.426c1.563,0,2.394-0.048,3.565-0.243V272.291z M485.48,285.042c-1.221-0.147-1.905-0.195-3.468-0.195h-7.621
			c-1.612,0-2.442,0.048-3.517,0.195v-2.1c0.978,0.145,1.807,0.195,3.517,0.195h7.621c1.662,0,2.491-0.05,3.468-0.195V285.042z
			 M485.48,291.44c-1.221-0.145-1.905-0.195-3.468-0.195h-7.621c-1.612,0-2.442,0.05-3.517,0.195v-2.1
			c0.978,0.147,1.857,0.195,3.517,0.195h7.621c1.662,0,2.491-0.048,3.468-0.195V291.44z M471.509,299.696
			c0-1.563-0.05-2.686-0.245-3.909c1.026,0.147,1.857,0.197,3.225,0.197h7.913c1.271,0,2.247-0.05,3.225-0.147
			c-0.147,1.074-0.195,1.954-0.195,3.81v5.812c0,1.467,0.097,2.784,0.292,4.006h-2.197v-2.052h-10.112v2.639h-2.199
			c0.195-1.271,0.294-2.688,0.294-4.593V299.696z M473.414,305.706h10.112v-8.013h-10.112V305.706z M492.954,285.139
			c-2.199,0-3.712,0.098-5.275,0.294v-2.394c1.416,0.195,2.98,0.294,5.275,0.294h4.69v-9.967c0-2.05-0.097-3.271-0.342-5.032h2.688
			c-0.245,1.515-0.342,3.225-0.342,5.032v9.967h4.981c2.541,0,4.006-0.098,5.569-0.294v2.394c-1.66-0.245-3.076-0.294-5.569-0.294
			h-4.981v18.32c0,2.98,0.097,4.786,0.39,6.545h-2.736c0.294-1.905,0.342-3.076,0.342-6.545v-18.32H492.954z"/>
		<path fill="#FFFFFF" d="M530.839,271.657c-1.905,0-2.688,0.048-4.006,0.292v-2.296c1.27,0.244,2.052,0.294,4.006,0.294h7.376
			c1.758,0,2.541-0.05,3.714-0.294v2.199c-1.124-0.147-2.151-0.195-3.714-0.195h-3.175c-0.636,4.69-1.515,7.961-3.37,12.749h5.959
			c1.612,0,2.002,0,2.883-0.147c-0.099,1.124-0.099,1.612-0.099,3.909v13.727c0,1.758,0,2.734,0.147,4.054h-2.052v-2.442h-6.643
			v5.128h-2.199c0.195-1.221,0.294-2.245,0.294-4.493v-11.188c0-1.71,0.048-3.517,0.147-5.617c-1.026,2.491-1.955,4.102-3.714,6.349
			c-0.537-0.586-0.927-0.928-1.66-1.366c2.344-2.736,3.859-5.374,5.422-9.184c1.66-4.251,2.394-7.035,2.883-11.48H530.839z
			 M531.865,301.845h6.643v-15.777h-6.643V301.845z M548.425,271.657c-1.905,0-3.223,0.097-4.543,0.292v-2.296
			c1.221,0.195,2.541,0.294,4.543,0.294h15.388c2.002,0,3.322-0.098,4.591-0.294v2.296c-1.318-0.195-2.686-0.292-4.591-0.292h-1.662
			v13.97h2.052c2.002,0,3.42-0.098,4.738-0.294v2.346c-1.368-0.195-2.784-0.294-4.738-0.294h-2.052v17.586
			c0,1.71,0.098,3.126,0.294,4.641h-2.638c0.244-1.612,0.342-2.98,0.342-4.641v-17.586h-8.745
			c-0.292,5.814-1.123,10.258-2.638,14.117c-1.27,3.323-2.931,5.766-5.716,8.647c-0.634-0.781-1.173-1.221-1.857-1.563
			c2.493-2.197,3.909-4.102,5.277-6.937c1.66-3.517,2.589-8.06,2.881-14.264h-2.002c-1.954,0-3.322,0.098-4.641,0.294v-2.346
			c1.221,0.195,2.638,0.294,4.641,0.294h2.052c0-0.586,0.048-0.831,0.048-1.515v-12.455H548.425z M551.503,283.624
			c0,0.783-0.048,1.026-0.048,2.004h8.695v-13.97h-8.647V283.624z"/>
		<path fill="#FFFFFF" d="M603.262,293.395c-0.637,2.833-1.515,4.885-2.835,6.887c-1.123,1.662-2.491,3.126-4.201,4.494
			c-2.541,2.004-4.641,3.078-9.428,4.885c-0.342-0.732-0.734-1.171-1.515-1.758c5.128-1.612,7.474-2.784,10.16-4.981
			c2.981-2.493,4.836-5.52,5.812-9.526h-7.863c-2.442,0-3.567,0.048-4.983,0.292v-2.442c1.32,0.245,2.442,0.294,4.885,0.294h8.355
			c0.29-1.857,0.39-2.736,0.39-4.69c0-0.636-0.1-1.368-0.197-2.199l2.589,0.098c-0.244,1.026-0.294,1.416-0.39,3.322
			c-0.097,1.368-0.197,2.149-0.39,3.468h5.959c2.296,0,3.714-0.048,5.372-0.244c-0.097,0.928-0.097,1.074-0.193,4.054l-0.147,9.673
			c-0.05,1.416,0.634,1.612,5.178,1.612c3.126,0,4.151-0.244,4.591-0.978c0.39-0.781,0.781-3.565,0.881-6.937
			c0.831,0.489,1.368,0.734,2.149,0.978c-0.831,8.647-0.978,8.794-8.111,8.794c-5.712,0-6.79-0.537-6.74-3.615l0.197-11.48H603.262z
			 M610.346,282.795c0,0.732,0.097,0.928,0.731,1.074c0.491,0.147,1.662,0.195,3.323,0.195c3.37,0,4.394-0.147,4.738-0.684
			c0.34-0.537,0.587-2.052,0.634-3.957c0.734,0.44,1.175,0.684,1.859,0.879c-0.491,5.13-0.978,5.52-7.037,5.52
			c-5.178,0-6.106-0.342-6.106-2.149v-8.599h-6.643c-0.44,3.615-1.221,5.52-3.028,7.524c-2.052,2.247-4.69,3.613-10.162,5.177
			c-0.292-0.586-0.634-1.074-1.27-1.807c5.422-0.978,8.305-2.394,10.454-5.08c1.271-1.613,1.905-3.372,2.052-5.814h-11.089v6.253
			h-2.1c0.147-1.026,0.195-1.807,0.195-3.175v-2.004c0-1.171-0.048-2.149-0.195-3.076c1.662,0.195,2.98,0.244,4.494,0.244h13.335
			v-1.612c0-1.563-0.097-2.491-0.34-3.567h2.636c-0.243,1.076-0.34,1.955-0.34,3.567v1.612h14.264c1.515,0,2.786-0.048,4.494-0.244
			c-0.147,0.976-0.197,1.758-0.197,3.076v2.004c0,1.416,0.05,2.199,0.197,3.175h-2.102v-6.253h-12.796V282.795z"/>
		<path fill="#FFFFFF" d="M653.36,305.706c0,1.855,0.1,3.271,0.294,4.493h-2.493c0.197-1.318,0.294-2.686,0.294-4.493v-15.682
			c-2.392,2.493-4.054,3.909-7.084,5.961c-0.487-0.684-0.781-1.026-1.415-1.515c6.937-4.446,11.381-9.478,14.801-16.706h-9.329
			c-1.221,0-2.396,0.048-3.714,0.195v-2.1c1.221,0.147,2.346,0.195,3.714,0.195h3.026v-4.593c0-1.366-0.097-2.587-0.294-3.613h2.493
			c-0.193,1.074-0.294,2.247-0.294,3.712v4.494h3.126c1.418,0,2.102-0.048,2.686-0.147l1.078,1.27
			c-0.294,0.44-0.587,0.978-0.978,1.71c-1.712,3.372-3.08,5.52-5.422,8.403c2.342,2.686,4.151,4.297,7.474,6.496
			c-0.537,0.586-0.831,1.026-1.175,1.612c-3.026-2.197-4.885-3.907-6.79-6.203V305.706z M680.62,305.754
			c2.589,0,3.76-0.048,4.931-0.294v2.394c-1.415-0.244-2.732-0.342-4.931-0.342h-17.244c-2.199,0-3.567,0.098-4.935,0.342v-2.394
			c1.125,0.245,2.346,0.294,4.935,0.294h6.937v-21.006h-5.132c-1.662,0-3.173,0.098-4.591,0.244v-2.247
			c1.221,0.197,2.639,0.294,4.591,0.294h5.132v-11.089c0-1.318-0.1-2.344-0.344-3.957h2.686c-0.244,1.368-0.34,2.589-0.34,3.957
			v11.089h6.74c1.955,0,3.323-0.097,4.591-0.294v2.247c-1.415-0.145-2.879-0.244-4.591-0.244h-6.74v21.006H680.62z"/>
	</g>
	<g>
		<path fill="#FFFFFF" d="M297.639,346.125h-1.764l-5.168-8.527c-1.085-1.807-2.127-3.615-2.913-5.4l-0.084,0.021
			c0.149,2.063,0.17,3.954,0.17,6.761v7.145h-1.66v-16.203h1.852l5.23,8.527c1.148,1.936,2.082,3.615,2.827,5.295l0.043-0.022
			c-0.17-2.254-0.213-4.188-0.213-6.74v-7.06h1.68V346.125z"/>
		<path fill="#FFFFFF" d="M314.972,331.431h-4.785v14.694h-1.766v-14.694h-4.763v-1.488h11.313V331.431z"/>
		<path fill="#FFFFFF" d="M332.137,339.618c0,4.87-2.509,6.761-5.742,6.761c-3.019,0-5.422-1.764-5.422-6.654v-9.782h1.766v9.804
			c0,3.678,1.615,5.166,3.742,5.166c2.339,0,3.891-1.574,3.891-5.166v-9.804h1.766V339.618z"/>
		<path fill="#FFFFFF" d="M347.216,331.922c-0.467-0.299-1.488-0.745-2.849-0.745c-2.254,0-3.105,1.382-3.105,2.552
			c0,1.595,0.978,2.403,3.146,3.316c2.616,1.107,3.955,2.446,3.955,4.763c0,2.573-1.871,4.552-5.358,4.552
			c-1.468,0-3.062-0.448-3.871-1.021l0.489-1.468c0.872,0.575,2.17,0.999,3.488,0.999c2.168,0,3.445-1.169,3.445-2.913
			c0-1.594-0.872-2.571-2.978-3.422c-2.444-0.915-4.104-2.34-4.104-4.571c0-2.467,2-4.274,4.955-4.274
			c1.531,0,2.7,0.381,3.318,0.765L347.216,331.922z"/>
		<path fill="#FFFFFF" d="M364.914,331.431h-4.785v14.694h-1.766v-14.694h-4.763v-1.488h11.313V331.431z"/>
		<path fill="#FFFFFF" d="M390.745,345.636c-0.745,0.362-2.19,0.723-4.04,0.723c-4.169,0-7.528-2.702-7.528-8.187
			c0-5.23,3.254-8.484,7.995-8.484c1.936,0,3.062,0.403,3.572,0.659l-0.467,1.488c-0.745-0.362-1.787-0.659-3.062-0.659
			c-3.68,0-6.188,2.466-6.188,6.931c0,4.253,2.297,6.761,6.081,6.761c1.234,0,2.446-0.276,3.254-0.659L390.745,345.636z"/>
		<path fill="#FFFFFF" d="M407.335,340.236c0,4.315-2.849,6.144-5.422,6.144c-2.978,0-5.273-2.231-5.273-5.973
			c0-3.955,2.466-6.145,5.422-6.145C405.23,334.261,407.335,336.685,407.335,340.236z M401.998,335.643
			c-2.509,0-3.551,2.466-3.551,4.699c0,2.573,1.425,4.657,3.508,4.657c2.106,0,3.574-2.084,3.574-4.7
			C405.529,338.236,404.528,335.643,401.998,335.643z"/>
		<path fill="#FFFFFF" d="M423.607,343.255c0,0.935,0.043,2.084,0.084,2.87h-1.574l-0.084-1.977h-0.064
			c-0.594,1.21-1.912,2.231-3.784,2.231c-2.681,0-4.763-2.317-4.763-5.889c0-3.912,2.296-6.208,4.996-6.208
			c1.701,0,2.851,0.829,3.381,1.785h0.043v-6.953h1.766V343.255z M421.841,339.172c0-2.319-1.637-3.467-3.126-3.467
			c-2.19,0-3.486,2.041-3.486,4.7c0,2.444,1.148,4.528,3.424,4.528c1.914,0,3.189-1.68,3.189-3.529V339.172z"/>
		<path fill="#FFFFFF" d="M432.2,332.495c-0.68,0-1.15-0.532-1.15-1.212c0-0.659,0.489-1.191,1.169-1.191
			c0.702,0,1.15,0.532,1.15,1.191C433.369,332.028,432.88,332.495,432.2,332.495z M433.092,346.125h-1.764v-11.589h1.764V346.125z"
			/>
		<path fill="#FFFFFF" d="M450.115,346.125h-1.764v-6.847c0-1.893-0.68-3.551-2.702-3.551c-1.509,0-3.04,1.277-3.04,3.297v7.102
			h-1.764v-8.611c0-1.191-0.043-2.063-0.086-2.999h1.574l0.106,1.893h0.043c0.575-1.126,1.914-2.147,3.721-2.147
			c1.447,0,3.912,0.872,3.912,4.806V346.125z"/>
		<path fill="#FFFFFF" d="M467.194,334.515c-0.063,0.829-0.106,1.766-0.106,3.191v6.761c0,2.02-0.043,6.656-5.528,6.656
			c-1.32,0-2.765-0.32-3.637-0.915l0.467-1.382c0.745,0.448,1.871,0.872,3.254,0.872c2.125,0,3.678-1.126,3.678-4.188v-1.382h-0.041
			c-0.596,1.083-1.83,1.977-3.594,1.977c-2.765,0-4.742-2.446-4.742-5.698c0-4.02,2.509-6.145,5.017-6.145
			c1.979,0,3.019,1.064,3.508,1.998h0.043l0.086-1.744H467.194z M465.303,338.981c0-2.02-1.468-3.297-3.083-3.297
			c-2.041,0-3.467,1.809-3.467,4.614c0,2.467,1.191,4.401,3.445,4.401c1.318,0,3.105-0.999,3.105-3.402V338.981z"/>
		<path fill="#FFFFFF" d="M494.705,345.636c-0.745,0.362-2.19,0.723-4.04,0.723c-4.169,0-7.528-2.702-7.528-8.187
			c0-5.23,3.254-8.484,7.995-8.484c1.936,0,3.062,0.403,3.572,0.659l-0.467,1.488c-0.745-0.362-1.787-0.659-3.062-0.659
			c-3.68,0-6.188,2.466-6.188,6.931c0,4.253,2.297,6.761,6.081,6.761c1.234,0,2.446-0.276,3.254-0.659L494.705,345.636z"/>
		<path fill="#FFFFFF" d="M503.214,346.125h-1.764v-17.011h1.764V346.125z"/>
		<path fill="#FFFFFF" d="M520.044,343.042c0,1.191,0.064,2.19,0.107,3.083h-1.595l-0.084-1.828h-0.064
			c-0.532,0.913-1.723,2.082-3.699,2.082c-1.744,0-3.807-0.999-3.807-4.996v-6.847h1.766v6.529c0,2.253,0.659,3.827,2.595,3.827
			c1.381,0,3.019-1.105,3.019-3.146v-7.209h1.764V343.042z"/>
		<path fill="#FFFFFF" d="M529.575,336.408c0.723-1.339,2.041-2.147,3.85-2.147c2.741,0,4.677,2.36,4.677,5.932
			c0,4.21-2.573,6.187-4.976,6.187c-1.68,0-2.913-0.68-3.742-2.168h-0.063l-0.107,1.914h-1.531c0.043-0.766,0.086-1.936,0.086-2.87
			v-14.14h1.764v7.293H529.575z M529.532,341.597c0,1.721,1.298,3.338,3.254,3.338c2.254,0,3.51-1.936,3.51-4.679
			c0-2.423-1.191-4.55-3.445-4.55c-2.02,0-3.318,1.893-3.318,3.594V341.597z"/>
	</g>
	<g>
		<path fill="#FFFFFF" d="M156.43,74h25.473l35.862,88.423L239.586,59H132.504C120.687,59,113,66.549,113,81.617v124.107
			c0,11.86,5.143,16.862,13.558,19.743L156.43,74z"/>
		<path fill="#FFFFFF" d="M268.054,58.651L233.935,201h-25.384l-35.77-83.905L150.731,231h105.88
			c14.12,0,28.389-13.458,28.389-25.276V81.617C285,68.381,275.928,61.81,268.054,58.651z"/>
	</g>
	<g>
		<g>
			<path fill="#FFFFFF" d="M426.533,162.164l26.137,3.956c-5.1,14.157-12.754,24.976-22.957,32.457
				c-10.203,7.478-22.155,11.219-35.85,11.219c-15.42,0-27.471-4.642-36.157-13.929c-8.683-9.284-13.025-22.753-13.025-40.408
				c0-14.329,2.909-27.442,8.727-39.337c5.818-11.893,13.886-20.993,24.203-27.299c10.317-6.305,21.551-9.459,33.703-9.459
				c13.643,0,24.678,3.656,33.102,10.965c8.426,7.306,13.384,17.267,14.875,29.878l-24.848,2.407
				c-1.374-7.338-4.027-12.654-7.954-15.948c-3.924-3.297-9.156-4.946-15.689-4.946c-7.166,0-13.859,2.18-20.077,6.536
				c-6.221,4.356-11.193,11.163-14.919,20.418c-3.726,9.258-5.587,18.502-5.587,27.73c0,10.09,2.422,17.883,7.265,23.386
				c4.843,5.503,10.877,8.254,18.099,8.254c6.705,0,12.853-2.18,18.443-6.536C419.612,177.155,423.781,170.704,426.533,162.164z"/>
		</g>
		<path fill="none" stroke="#FFFFFF" stroke-width="3" stroke-miterlimit="10" d="M482.5,206.831
			c0,11.415-9.254,20.669-20.669,20.669H339.169c-11.415,0-20.669-9.254-20.669-20.669V84.169c0-11.415,9.254-20.669,20.669-20.669
			h122.663c11.415,0,20.669,9.254,20.669,20.669V206.831z"/>
	</g>
	<g>
		<g>
			<path fill="#FFFFFF" d="M629.963,162.164l26.137,3.956c-5.1,14.157-12.754,24.976-22.957,32.457
				c-10.203,7.478-22.155,11.219-35.851,11.219c-15.42,0-27.471-4.642-36.157-13.929c-8.683-9.284-13.025-22.753-13.025-40.408
				c0-14.329,2.909-27.442,8.727-39.337c5.818-11.893,13.886-20.993,24.203-27.299s21.551-9.459,33.703-9.459
				c13.643,0,24.678,3.656,33.102,10.965c8.426,7.306,13.384,17.267,14.875,29.878l-24.848,2.407
				c-1.374-7.338-4.026-12.654-7.954-15.948c-3.924-3.297-9.156-4.946-15.689-4.946c-7.166,0-13.859,2.18-20.077,6.536
				c-6.221,4.356-11.193,11.163-14.919,20.418c-3.726,9.258-5.588,18.502-5.588,27.73c0,10.09,2.422,17.883,7.265,23.386
				c4.843,5.503,10.877,8.254,18.099,8.254c6.705,0,12.853-2.18,18.443-6.536C623.042,177.155,627.212,170.704,629.963,162.164z"/>
		</g>
		<path fill="none" stroke="#FFFFFF" stroke-width="3" stroke-miterlimit="10" d="M687.5,206.831
			c0,11.415-9.254,20.669-20.669,20.669H544.169c-11.415,0-20.669-9.254-20.669-20.669V84.169c0-11.415,9.254-20.669,20.669-20.669
			h122.663c11.415,0,20.669,9.254,20.669,20.669V206.831z"/>
	</g>
</g>
</svg>
