<?xml version="1.0"?>
<svg version="1.1" xmlns="http://www.w3.org/2000/svg" xmlns:xlink="http://www.w3.org/1999/xlink" width="540" height="240">
    <desc iVinci="yes" version="4.5" gridStep="20" showGrid="no" snapToGrid="no" codePlatform="0"/>
    <g id="Layer1" opacity="1">
        <g id="Shape1">
            <desc shapeID="1" type="0" basicInfo-basicType="0" basicInfo-roundedRectRadius="12" basicInfo-polygonSides="6" basicInfo-starPoints="5" bounding="rect(-35.9607,-40.7565,71.9214,81.513)" text="" font-familyName="" font-pixelSize="20" font-bold="0" font-underline="0" font-alignment="1" strokeStyle="0" markerStart="0" markerEnd="0" shadowEnabled="0" shadowOffsetX="0" shadowOffsetY="2" shadowBlur="4" shadowOpacity="160" blurEnabled="0" blurRadius="4" transform="matrix(1,0,0,1,145.955,85.2041)" pers-center="0,0" pers-size="0,0" pers-start="0,0" pers-end="0,0" locked="0" mesh="" flag=""/>
            <path id="shapePath1" d="M164.072,50.66 C165.234,49.168 166.258,47.996 167.143,47.142 C168.027,46.289 168.895,45.635 169.749,45.182 C170.601,44.728 171.497,44.486 172.436,44.453 C173.373,44.422 174.51,44.525 175.846,44.768 C177.495,45.067 178.995,45.847 180.348,47.106 C181.701,48.366 182.178,50.095 181.779,52.292 C181.722,52.607 181.648,52.898 181.56,53.165 C181.47,53.434 181.35,53.756 181.202,54.134 C180.844,55.206 179.988,56.571 178.634,58.23 C177.278,59.891 175.551,62.031 173.455,64.65 L127.932,119.769 C126.691,121.247 125.627,122.413 124.743,123.266 C123.858,124.12 122.989,124.772 122.137,125.226 C121.283,125.679 120.388,125.922 119.45,125.955 C118.511,125.986 117.413,125.889 116.158,125.662 C114.509,125.363 112.992,124.559 111.607,123.255 C110.22,121.95 109.729,120.198 110.128,117.999 C110.199,117.607 110.383,117.032 110.684,116.275 C111.119,115.219 111.993,113.857 113.311,112.19 C114.626,110.524 116.373,108.387 118.549,105.781 L164.072,50.66 Z" style="stroke:none;fill-rule:nonzero;fill:#f9cb7c;fill-opacity:1;"/>
        </g>
        <g id="Shape2">
            <desc shapeID="2" type="0" basicInfo-basicType="0" basicInfo-roundedRectRadius="12" basicInfo-polygonSides="6" basicInfo-starPoints="5" bounding="rect(-35.829,-37.3255,71.658,74.651)" text="" font-familyName="" font-pixelSize="20" font-bold="0" font-underline="0" font-alignment="1" strokeStyle="0" markerStart="0" markerEnd="0" shadowEnabled="0" shadowOffsetX="0" shadowOffsetY="2" shadowBlur="4" shadowOpacity="160" blurEnabled="0" blurRadius="4" transform="matrix(1,0,0,1,309.935,88.1275)" pers-center="0,0" pers-size="0,0" pers-start="0,0" pers-end="0,0" locked="0" mesh="" flag=""/>
            <path id="shapePath2" d="M275.193,89.554 C276.37,83.843 278.252,78.608 280.836,73.849 C283.42,69.09 286.636,65.011 290.49,61.611 C294.342,58.212 298.784,55.56 303.815,53.657 C308.846,51.754 314.397,50.802 320.472,50.802 C324.279,50.802 327.747,51.257 330.874,52.162 C334.002,53.069 336.653,54.269 338.829,55.765 C341.005,57.26 342.704,59.007 343.928,61 C345.152,62.995 345.764,65.035 345.764,67.119 C345.764,67.574 345.74,67.958 345.695,68.275 C345.648,68.594 345.581,68.979 345.492,69.431 C344.948,72.333 343.609,74.485 341.48,75.89 C339.349,77.297 337.014,77.998 334.477,77.998 C332.118,77.998 330.533,77.386 329.718,76.162 C328.902,74.938 328.131,73.602 327.407,72.151 C326.68,70.702 325.592,69.363 324.144,68.14 C322.693,66.916 320.2,66.304 316.665,66.304 C314.762,66.304 312.722,66.668 310.546,67.392 C308.37,68.119 306.284,69.387 304.291,71.199 C302.296,73.014 300.484,75.414 298.852,78.406 C297.221,81.398 295.95,85.116 295.045,89.556 C294.501,92.003 294.229,94.226 294.229,96.219 C294.229,100.57 295.317,103.948 297.492,106.349 C299.668,108.752 302.975,109.952 307.418,109.952 C310.862,109.952 313.558,109.296 315.508,107.98 C317.456,106.667 319.179,105.192 320.675,103.561 C322.171,101.93 323.688,100.457 325.23,99.142 C326.77,97.829 328.854,97.17 331.485,97.17 C333.661,97.17 335.337,97.76 336.516,98.938 C337.693,100.117 338.284,101.568 338.284,103.289 C338.284,103.924 338.237,104.423 338.149,104.785 C337.694,106.96 336.607,109.272 334.886,111.719 C333.162,114.167 330.851,116.41 327.951,118.45 C325.049,120.49 321.56,122.168 317.481,123.481 C313.402,124.794 308.823,125.453 303.748,125.453 C298.67,125.453 294.275,124.818 290.559,123.55 C286.841,122.281 283.76,120.514 281.313,118.247 C278.866,115.982 277.052,113.263 275.874,110.089 C274.695,106.917 274.106,103.382 274.106,99.483 C274.105,96.488 274.466,93.18 275.193,89.554 Z" style="stroke:none;fill-rule:nonzero;fill:#73b8e5;fill-opacity:1;"/>
        </g>
        <g id="Shape3">
            <desc shapeID="3" type="0" basicInfo-basicType="0" basicInfo-roundedRectRadius="12" basicInfo-polygonSides="6" basicInfo-starPoints="5" bounding="rect(-35.829,-37.3255,71.658,74.651)" text="" font-familyName="" font-pixelSize="20" font-bold="0" font-underline="0" font-alignment="1" strokeStyle="0" markerStart="0" markerEnd="0" shadowEnabled="0" shadowOffsetX="0" shadowOffsetY="2" shadowBlur="4" shadowOpacity="160" blurEnabled="0" blurRadius="4" transform="matrix(1,0,0,1,391.108,88.1275)" pers-center="0,0" pers-size="0,0" pers-start="0,0" pers-end="0,0" locked="0" mesh="" flag=""/>
            <path id="shapePath3" d="M356.367,89.554 C357.544,83.843 359.426,78.608 362.01,73.849 C364.594,69.09 367.81,65.011 371.665,61.611 C375.517,58.212 379.959,55.56 384.99,53.657 C390.021,51.754 395.573,50.802 401.646,50.802 C405.453,50.802 408.92,51.257 412.048,52.162 C415.175,53.069 417.826,54.269 420.002,55.765 C422.178,57.26 423.877,59.007 425.102,61 C426.325,62.995 426.937,65.035 426.937,67.119 C426.937,67.574 426.913,67.958 426.869,68.275 C426.822,68.594 426.754,68.979 426.665,69.431 C426.121,72.333 424.782,74.485 422.653,75.89 C420.522,77.297 418.187,77.998 415.65,77.998 C413.291,77.998 411.707,77.386 410.891,76.162 C410.076,74.938 409.305,73.602 408.58,72.151 C407.854,70.702 406.766,69.363 405.317,68.14 C403.866,66.916 401.374,66.304 397.838,66.304 C395.935,66.304 393.895,66.668 391.719,67.392 C389.543,68.119 387.457,69.387 385.465,71.199 C383.47,73.014 381.657,75.414 380.026,78.406 C378.395,81.398 377.124,85.116 376.219,89.556 C375.675,92.003 375.403,94.226 375.403,96.219 C375.403,100.57 376.491,103.948 378.666,106.349 C380.842,108.752 384.149,109.952 388.592,109.952 C392.036,109.952 394.732,109.296 396.682,107.98 C398.631,106.667 400.353,105.192 401.849,103.561 C403.345,101.93 404.862,100.457 406.404,99.142 C407.944,97.829 410.028,97.17 412.659,97.17 C414.834,97.17 416.511,97.76 417.69,98.938 C418.867,100.117 419.458,101.568 419.458,103.289 C419.458,103.924 419.411,104.423 419.322,104.785 C418.867,106.96 417.78,109.272 416.059,111.719 C414.336,114.167 412.024,116.41 409.124,118.45 C406.222,120.49 402.733,122.168 398.654,123.481 C394.575,124.794 389.996,125.453 384.921,125.453 C379.843,125.453 375.448,124.818 371.732,123.55 C368.014,122.281 364.933,120.514 362.485,118.247 C360.038,115.982 358.224,113.263 357.047,110.089 C355.868,106.917 355.279,103.382 355.279,99.483 C355.28,96.488 355.641,93.18 356.367,89.554 Z" style="stroke:none;fill-rule:nonzero;fill:#73b8e5;fill-opacity:1;"/>
        </g>
        <g id="Shape4">
            <desc shapeID="4" type="0" basicInfo-basicType="0" basicInfo-roundedRectRadius="12" basicInfo-polygonSides="6" basicInfo-starPoints="5" bounding="rect(-30.3745,-33.5525,60.749,67.105)" text="" font-familyName="" font-pixelSize="20" font-bold="0" font-underline="0" font-alignment="1" strokeStyle="0" markerStart="0" markerEnd="0" shadowEnabled="0" shadowOffsetX="0" shadowOffsetY="2" shadowBlur="4" shadowOpacity="160" blurEnabled="0" blurRadius="4" transform="matrix(1,0,0,1,78.6984,85.9885)" pers-center="0,0" pers-size="0,0" pers-start="0,0" pers-end="0,0" locked="0" mesh="" flag=""/>
            <path id="shapePath4" d="M109.073,59.94 C109.073,55.796 105.714,52.436 101.569,52.436 C100.254,52.436 99.019,52.776 97.9449,53.371 L97.9439,53.369 L55.1219,77.452 C53.58,78.178 52.1979,79.22 50.9749,80.579 C49.7509,81.939 48.912,83.481 48.4599,85.202 C48.3689,85.565 48.3239,86.065 48.3239,86.698 C48.3239,88.058 48.664,89.305 49.3439,90.437 C50.024,91.571 50.861,92.409 51.8589,92.952 L85.735,117.745 L85.7369,117.743 C87.2469,118.872 89.1209,119.541 91.1519,119.541 C96.1509,119.541 100.203,115.489 100.203,110.49 C100.203,107.708 98.946,105.22 96.9709,103.559 L96.976,103.552 L73.615,85.202 L105.325,66.437 L105.322,66.431 C107.562,65.133 109.073,62.716 109.073,59.94 Z" style="stroke:none;fill-rule:nonzero;fill:#f9cb7c;fill-opacity:1;"/>
        </g>
        <g id="Shape5">
            <desc shapeID="5" type="0" basicInfo-basicType="0" basicInfo-roundedRectRadius="12" basicInfo-polygonSides="6" basicInfo-starPoints="5" bounding="rect(-30.375,-33.552,60.75,67.104)" text="" font-familyName="" font-pixelSize="20" font-bold="0" font-underline="0" font-alignment="1" strokeStyle="0" markerStart="0" markerEnd="0" shadowEnabled="0" shadowOffsetX="0" shadowOffsetY="2" shadowBlur="4" shadowOpacity="160" blurEnabled="0" blurRadius="4" transform="matrix(1,0,0,1,462.691,85.843)" pers-center="0,0" pers-size="0,0" pers-start="0,0" pers-end="0,0" locked="0" mesh="" flag=""/>
            <path id="shapePath5" d="M432.316,111.891 C432.316,116.035 435.675,119.395 439.82,119.395 C441.135,119.395 442.37,119.055 443.444,118.46 L443.445,118.462 L486.267,94.379 C487.809,93.653 489.19,92.611 490.414,91.252 C491.638,89.892 492.477,88.35 492.93,86.629 C493.021,86.266 493.066,85.766 493.066,85.133 C493.066,83.773 492.726,82.526 492.046,81.394 C491.366,80.26 490.529,79.422 489.53,78.879 L455.654,54.086 L455.652,54.088 C454.142,52.959 452.268,52.291 450.237,52.291 C445.238,52.291 441.186,56.343 441.186,61.342 C441.186,64.124 442.442,66.612 444.418,68.273 L444.413,68.28 L467.774,86.63 L436.064,105.395 L436.067,105.401 C433.827,106.698 432.316,109.116 432.316,111.891 Z" style="stroke:none;fill-rule:nonzero;fill:#f9cb7c;fill-opacity:1;"/>
        </g>
        <g id="Shape6">
            <desc shapeID="6" type="0" basicInfo-basicType="0" basicInfo-roundedRectRadius="12" basicInfo-polygonSides="6" basicInfo-starPoints="5" bounding="rect(-38.2775,-37.3259,76.555,74.6517)" text="" font-familyName="" font-pixelSize="20" font-bold="0" font-underline="0" font-alignment="1" strokeStyle="0" markerStart="0" markerEnd="0" shadowEnabled="0" shadowOffsetX="0" shadowOffsetY="2" shadowBlur="4" shadowOpacity="160" blurEnabled="0" blurRadius="4" transform="matrix(1,0,0,1,220.191,88.1261)" pers-center="0,0" pers-size="0,0" pers-start="0,0" pers-end="0,0" locked="0" mesh="" flag=""/>
            <path id="shapePath6" d="M256.701,60.387 C255.522,58.076 253.981,56.195 252.078,54.744 C250.174,53.295 247.999,52.275 245.551,51.685 C243.103,51.097 240.609,50.801 238.072,50.801 C232.361,50.801 227.375,51.957 223.115,54.268 C219.977,55.97 217.038,58.057 214.295,60.52 C214.294,60.518 214.294,60.516 214.293,60.515 C213.525,61.247 211.601,61.297 212.021,58.966 C212.019,58.966 212.017,58.966 212.015,58.966 C212.069,58.502 212.101,58.046 212.101,57.6 C212.101,55.516 211.488,53.881 210.333,52.637 C209.278,51.5 207.331,50.826 204.758,50.801 C201.584,50.77 199.115,51.708 197.347,53.52 C195.579,55.335 194.377,57.735 193.744,60.727 L182.322,115.525 C182.05,116.613 181.914,117.611 181.914,118.517 C181.914,120.512 182.502,122.167 183.682,123.48 C184.859,124.793 187.035,125.452 190.209,125.452 C194.106,125.452 196.94,124.453 198.707,122.461 C200.475,120.468 201.631,118.156 202.174,115.526 L208.973,82.756 C209.517,80.309 210.446,78.112 211.761,76.161 C213.074,74.213 214.593,72.558 216.316,71.198 C218.037,69.838 219.873,68.818 221.823,68.139 C223.771,67.459 225.607,67.119 227.33,67.119 C230.866,67.119 233.425,68.003 235.013,69.77 C236.598,71.538 237.393,73.873 237.393,76.773 C237.393,78.044 237.257,79.403 236.985,80.852 L229.778,115.525 C229.506,116.613 229.37,117.611 229.37,118.517 C229.37,120.512 229.959,122.167 231.138,123.48 C232.315,124.793 234.491,125.452 237.665,125.452 C241.562,125.452 244.396,124.453 246.163,122.461 C247.931,120.468 249.087,118.156 249.63,115.526 L257.653,76.91 C258.197,74.101 258.469,71.518 258.469,69.16 C258.469,65.622 257.878,62.699 256.701,60.387 Z" style="stroke:none;fill-rule:nonzero;fill:#73b8e5;fill-opacity:1;"/>
        </g>
        <g id="Shape7">
            <desc shapeID="7" type="0" basicInfo-basicType="0" basicInfo-roundedRectRadius="12" basicInfo-polygonSides="6" basicInfo-starPoints="5" bounding="rect(-58.0575,-18.6786,116.115,37.3573)" text="" font-familyName="" font-pixelSize="20" font-bold="0" font-underline="0" font-alignment="1" strokeStyle="0" markerStart="0" markerEnd="0" shadowEnabled="0" shadowOffsetX="0" shadowOffsetY="2" shadowBlur="4" shadowOpacity="160" blurEnabled="0" blurRadius="4" transform="matrix(1,0,0,1,104.991,176.389)" pers-center="0,0" pers-size="0,0" pers-start="0,0" pers-end="0,0" locked="0" mesh="" flag=""/>
            <path id="shapePath7" d="M73.6582,180.391 L53.6049,180.391 L53.6049,189.852 L73.6582,189.852 L73.6582,180.391 M53.6049,195.067 L50.8557,195.067 C50.9096,194.313 50.9568,193.585 50.9972,192.884 C51.0377,192.183 51.0579,191.442 51.0579,190.66 L51.0579,181.321 C51.0579,181.078 51.0511,180.795 51.0377,180.472 C51.0242,180.149 51.0107,179.825 50.9972,179.502 C50.9837,179.178 50.9635,178.882 50.9366,178.612 C50.9096,178.343 50.8827,178.127 50.8557,177.965 C51.2331,177.992 51.8463,178.026 52.6953,178.066 C53.5443,178.107 54.5416,178.141 55.6871,178.167 C56.8326,178.194 58.0725,178.215 59.4067,178.228 C60.7408,178.242 62.0683,178.248 63.389,178.248 C67.0816,178.248 69.9858,178.221 72.1017,178.167 C74.2175,178.114 75.7067,178.046 76.5692,177.965 C76.5153,178.289 76.4681,178.787 76.4277,179.461 C76.3873,180.135 76.367,180.863 76.367,181.644 L76.367,190.741 C76.367,191.496 76.367,192.183 76.367,192.803 C76.367,193.423 76.3805,194.07 76.4075,194.744 L73.6582,194.744 L73.6582,191.954 L53.6049,191.954 L53.6049,195.067 M74.4264,171.133 C73.2944,169.866 72.1758,168.741 71.0707,167.757 C69.9656,166.773 68.6988,165.742 67.2703,164.664 L69.1705,163.006 C71.192,164.704 73.1394,166.429 75.0126,168.181 C76.8859,169.933 78.7928,171.887 80.7335,174.044 L78.3481,175.823 C77.8629,175.203 77.4586,174.69 77.1352,174.286 C76.8118,173.882 76.4749,173.491 76.1245,173.114 C72.5666,173.248 69.4872,173.37 66.8862,173.478 C64.2852,173.585 62.0346,173.68 60.1344,173.761 C58.2342,173.841 56.644,173.922 55.3637,174.003 C54.0834,174.084 53.0052,174.165 52.1293,174.246 C51.2533,174.327 50.5121,174.414 49.9056,174.509 C49.2992,174.603 48.7264,174.717 48.1873,174.852 C48.0526,174.232 47.8976,173.7 47.7224,173.255 C47.5472,172.811 47.2844,172.278 46.934,171.658 C47.7426,171.739 48.7938,171.78 50.0876,171.78 C51.3813,170.486 52.6548,169.158 53.9082,167.797 C55.1615,166.436 56.3205,165.122 57.3852,163.855 C58.4498,162.588 59.3797,161.423 60.1748,160.358 C60.97,159.293 61.5562,158.411 61.9335,157.71 C62.5265,158.114 63.0319,158.424 63.4497,158.64 C63.8674,158.855 64.3593,159.071 64.9254,159.287 C65.4644,159.475 65.7272,159.684 65.7137,159.913 C65.7003,160.142 65.397,160.284 64.8041,160.338 C64.5884,160.365 64.2852,160.52 63.8944,160.803 C63.5036,161.086 62.9308,161.618 62.1761,162.4 C60.5859,164.017 59.0697,165.574 57.6277,167.069 C56.1857,168.565 54.6966,170.122 53.1602,171.739 L74.4264,171.133 M111.056,170.647 C110.14,169.3 109.176,168.04 108.165,166.867 C107.154,165.695 105.975,164.583 104.628,163.532 L106.204,161.793 C106.77,162.278 107.37,162.838 108.004,163.471 C108.637,164.105 109.257,164.745 109.863,165.392 C110.47,166.038 111.043,166.685 111.582,167.332 C112.121,167.979 112.592,168.559 112.997,169.071 L111.056,170.647 M116.999,187.426 C116.999,187.911 117.006,188.47 117.019,189.104 C117.033,189.737 117.06,190.398 117.1,191.085 C117.141,191.772 117.181,192.466 117.222,193.167 C117.262,193.868 117.309,194.501 117.363,195.067 L114.169,195.067 C114.223,194.555 114.284,193.962 114.351,193.288 C114.418,192.614 114.472,191.92 114.513,191.206 C114.553,190.492 114.587,189.805 114.614,189.144 C114.641,188.484 114.654,187.911 114.654,187.426 L114.654,183.221 L108.266,183.909 C107.377,183.989 106.588,184.077 105.901,184.171 C105.214,184.266 104.58,184.353 104.001,184.434 C103.421,184.515 102.862,184.609 102.323,184.717 C101.784,184.825 101.218,184.933 100.625,185.041 L100.342,182.291 C100.962,182.291 101.555,182.285 102.121,182.271 C102.687,182.258 103.273,182.237 103.88,182.21 C104.486,182.184 105.126,182.136 105.8,182.069 C106.474,182.002 107.242,181.927 108.105,181.847 L114.654,181.2 L114.654,164.745 C114.654,163.37 114.627,162.097 114.573,160.924 C114.52,159.752 114.425,158.869 114.29,158.276 C114.91,158.438 115.449,158.552 115.908,158.62 C116.366,158.687 116.824,158.707 117.282,158.68 C117.767,158.653 118.037,158.721 118.091,158.882 C118.145,159.044 117.97,159.246 117.565,159.489 C117.35,159.624 117.201,159.927 117.12,160.398 C117.04,160.87 116.999,161.618 116.999,162.642 L116.999,180.917 C117.619,180.836 118.185,180.762 118.697,180.694 C119.209,180.627 119.695,180.553 120.153,180.472 C120.611,180.391 121.069,180.31 121.527,180.229 C121.986,180.149 122.471,180.041 122.983,179.906 L123.266,182.696 C122.269,182.669 121.305,182.682 120.375,182.736 C119.445,182.79 118.32,182.871 116.999,182.979 L116.999,187.426 M110.328,179.583 C109.735,178.828 109.176,178.141 108.65,177.521 C108.125,176.901 107.586,176.328 107.033,175.802 C106.481,175.277 105.921,174.778 105.355,174.306 C104.789,173.835 104.169,173.37 103.496,172.912 L104.951,171.133 C105.517,171.537 106.144,172.029 106.831,172.608 C107.518,173.188 108.206,173.788 108.893,174.407 C109.58,175.027 110.227,175.641 110.834,176.247 C111.44,176.854 111.932,177.386 112.309,177.844 L110.328,179.583 M94.2371,163.33 C93.2129,163.464 92.1954,163.579 91.1846,163.673 C90.1739,163.768 89.2642,163.828 88.4556,163.855 C88.2939,162.939 87.93,162.13 87.364,161.429 C89.709,161.564 91.9259,161.51 94.0147,161.268 C96.1036,161.025 98.1588,160.513 100.18,159.731 C100.423,160.19 100.672,160.574 100.928,160.884 C101.184,161.194 101.434,161.443 101.676,161.632 C102.134,161.982 102.303,162.258 102.182,162.46 C102.06,162.663 101.717,162.696 101.151,162.561 C101.016,162.535 100.854,162.514 100.665,162.501 C100.477,162.487 100.207,162.501 99.8569,162.541 C99.5065,162.582 99.055,162.636 98.5025,162.703 C97.9499,162.77 97.2424,162.871 96.3799,163.006 L96.3799,170.284 C97.7276,170.284 98.9203,170.257 99.9579,170.203 C100.996,170.149 101.905,170.068 102.687,169.96 L102.687,172.548 C101.905,172.44 100.996,172.366 99.9579,172.325 C98.9203,172.285 97.7276,172.265 96.3799,172.265 L96.3799,173.882 C97.5928,174.798 98.7855,175.762 99.9579,176.773 C101.13,177.783 102.134,178.68 102.97,179.461 L100.989,181.402 C100.665,180.863 100.086,180.101 99.2504,179.118 C98.4149,178.134 97.458,177.13 96.3799,176.106 L96.3799,188.154 C96.3799,189.097 96.4069,190.155 96.4608,191.327 C96.5147,192.5 96.5955,193.679 96.7033,194.865 L93.9137,194.865 C94.0215,193.679 94.1024,192.5 94.1562,191.327 C94.2101,190.155 94.2371,189.097 94.2371,188.154 L94.2371,177.076 C93.2129,179.502 92.1347,181.692 91.0027,183.646 C89.8707,185.6 88.6982,187.318 87.4853,188.801 C86.8654,187.911 86.1241,187.305 85.2617,186.981 C87.2023,184.96 88.9071,182.702 90.376,180.209 C91.845,177.716 93.132,175.149 94.2371,172.507 L94.2371,172.265 C92.7008,172.265 91.2924,172.285 90.0122,172.325 C88.7319,172.366 87.674,172.44 86.8384,172.548 L86.8384,169.96 C87.674,170.068 88.7319,170.149 90.0122,170.203 C91.2924,170.257 92.7008,170.284 94.2371,170.284 L94.2371,163.33 M144.855,174.974 C144.316,177.291 143.582,179.347 142.652,181.139 C141.722,182.931 140.597,184.549 139.276,185.991 C137.955,187.433 136.433,188.753 134.708,189.953 C132.983,191.152 131.055,192.318 128.926,193.45 C128.522,192.911 128.111,192.459 127.693,192.096 C127.275,191.732 126.824,191.429 126.339,191.186 C131.514,189.057 135.509,186.301 138.326,182.918 C141.143,179.535 142.78,175.647 143.238,171.254 C141.945,171.254 140.563,171.267 139.094,171.294 C137.625,171.321 136.21,171.355 134.849,171.395 C133.488,171.436 132.241,171.476 131.109,171.517 C129.977,171.557 129.088,171.604 128.441,171.658 L128.441,168.707 C129.088,168.761 129.984,168.808 131.129,168.848 C132.275,168.889 133.542,168.922 134.93,168.949 C136.318,168.976 137.753,169.003 139.236,169.03 C140.718,169.057 142.106,169.071 143.4,169.071 C143.427,168.316 143.44,167.413 143.44,166.362 C143.44,165.311 143.44,164.273 143.44,163.249 C143.44,162.225 143.44,161.268 143.44,160.378 C143.44,159.489 143.427,158.815 143.4,158.357 C144.047,158.572 144.572,158.707 144.977,158.761 C145.381,158.815 145.893,158.815 146.513,158.761 C146.971,158.707 147.214,158.795 147.241,159.024 C147.268,159.253 147.12,159.475 146.796,159.691 C146.554,159.88 146.365,160.183 146.23,160.601 C146.095,161.018 146.028,161.483 146.028,161.995 C146.055,164.583 145.974,166.941 145.785,169.071 C147.079,169.071 148.528,169.064 150.132,169.051 C151.735,169.037 153.305,169.01 154.842,168.97 C156.378,168.929 157.786,168.889 159.067,168.848 C160.347,168.808 161.324,168.761 161.998,168.707 L161.998,171.658 C161.324,171.604 160.36,171.557 159.107,171.517 C157.854,171.476 156.472,171.436 154.963,171.395 C153.454,171.355 151.897,171.321 150.293,171.294 C148.69,171.267 147.2,171.254 145.826,171.254 C146.419,173.275 147.234,175.23 148.272,177.116 C149.31,179.003 150.549,180.768 151.991,182.413 C153.433,184.057 155.078,185.573 156.924,186.961 C158.77,188.349 160.812,189.542 163.049,190.539 C162.456,190.889 161.951,191.3 161.533,191.772 C161.115,192.244 160.731,192.79 160.381,193.41 C158.709,192.412 157.106,191.26 155.569,189.953 C154.033,188.646 152.605,187.21 151.284,185.647 C149.963,184.084 148.757,182.406 147.665,180.613 C146.574,178.821 145.637,176.941 144.855,174.974 Z" style="stroke:none;fill-rule:nonzero;fill:#f9cb7c;fill-opacity:1;"/>
        </g>
        <g id="Shape8">
            <desc shapeID="8" type="0" basicInfo-basicType="0" basicInfo-roundedRectRadius="12" basicInfo-polygonSides="6" basicInfo-starPoints="5" bounding="rect(-140.11,-19.1032,280.22,38.2063)" text="" font-familyName="" font-pixelSize="20" font-bold="0" font-underline="0" font-alignment="1" strokeStyle="0" markerStart="0" markerEnd="0" shadowEnabled="0" shadowOffsetX="0" shadowOffsetY="2" shadowBlur="4" shadowOpacity="160" blurEnabled="0" blurRadius="4" transform="matrix(1,0,0,1,340.086,176.449)" pers-center="0,0" pers-size="0,0" pers-start="0,0" pers-end="0,0" locked="0" mesh="" flag=""/>
            <path id="shapePath8" d="M232.603,162.764 L220.231,162.764 L220.231,170.203 L232.603,170.203 L232.603,162.764 M235.231,172.386 C234.638,172.332 234.031,172.285 233.411,172.244 C232.791,172.204 232.124,172.17 231.41,172.143 C230.696,172.116 229.921,172.096 229.085,172.083 C228.25,172.069 227.32,172.063 226.296,172.063 C225.271,172.063 224.355,172.069 223.546,172.083 C222.738,172.096 221.997,172.116 221.323,172.143 C220.649,172.17 220.022,172.204 219.443,172.244 C218.863,172.285 218.277,172.332 217.684,172.386 C217.765,171.604 217.832,170.668 217.886,169.576 C217.94,168.484 217.967,167.332 217.967,166.119 C217.967,164.933 217.94,163.909 217.886,163.047 C217.832,162.184 217.765,161.362 217.684,160.58 C218.277,160.634 218.863,160.682 219.443,160.722 C220.022,160.762 220.649,160.796 221.323,160.823 C221.997,160.85 222.738,160.87 223.546,160.884 C224.355,160.897 225.271,160.904 226.296,160.904 C228.344,160.904 230.056,160.877 231.43,160.823 C232.805,160.769 234.072,160.688 235.231,160.58 C235.123,161.362 235.049,162.177 235.008,163.026 C234.968,163.875 234.948,164.906 234.948,166.119 C234.948,167.332 234.968,168.505 235.008,169.637 C235.049,170.769 235.123,171.685 235.231,172.386 M227.589,182.655 C228.506,182.655 229.321,182.642 230.035,182.615 C230.75,182.588 231.41,182.561 232.016,182.534 C232.623,182.507 233.202,182.473 233.755,182.433 C234.308,182.392 234.88,182.345 235.473,182.291 L235.473,184.879 C234.88,184.798 234.308,184.737 233.755,184.697 C233.202,184.656 232.623,184.616 232.016,184.576 C231.41,184.535 230.75,184.508 230.035,184.495 C229.321,184.481 228.506,184.475 227.589,184.475 L227.589,190.741 C229.827,190.741 231.727,190.714 233.29,190.66 C234.853,190.606 236.309,190.526 237.656,190.418 L237.656,193.046 C236.929,192.992 236.194,192.938 235.453,192.884 C234.712,192.83 233.903,192.783 233.027,192.742 C232.151,192.702 231.167,192.675 230.076,192.662 C228.984,192.648 227.697,192.641 226.215,192.641 C223.816,192.641 221.687,192.675 219.827,192.742 C217.967,192.81 216.282,192.911 214.773,193.046 L214.773,190.418 C216.256,190.526 217.913,190.606 219.746,190.66 C221.579,190.714 223.385,190.741 225.164,190.741 L225.164,184.475 C224.193,184.475 223.317,184.488 222.536,184.515 C221.754,184.542 221.04,184.569 220.393,184.596 C219.746,184.623 219.133,184.663 218.553,184.717 C217.974,184.771 217.401,184.825 216.835,184.879 L216.835,182.291 C217.401,182.345 217.974,182.399 218.553,182.453 C219.133,182.507 219.746,182.547 220.393,182.574 C221.04,182.601 221.754,182.622 222.536,182.635 C223.317,182.648 224.193,182.655 225.164,182.655 L225.164,177.359 C223.789,177.44 222.381,177.507 220.939,177.561 C219.497,177.615 218.115,177.655 216.795,177.682 C216.795,177.116 216.734,176.645 216.613,176.267 C216.491,175.89 216.296,175.513 216.026,175.135 C217.212,175.243 218.243,175.317 219.119,175.358 C219.995,175.398 220.804,175.418 221.545,175.418 C222.286,175.418 223.001,175.398 223.688,175.358 C224.375,175.317 225.123,175.27 225.932,175.216 C227.226,175.108 228.337,175.007 229.267,174.913 C230.197,174.819 231.012,174.717 231.713,174.61 C232.414,174.502 233.021,174.387 233.533,174.266 C234.045,174.145 234.53,174.017 234.988,173.882 C235.204,174.394 235.392,174.778 235.554,175.034 C235.716,175.29 235.918,175.566 236.161,175.863 C236.457,176.186 236.551,176.436 236.444,176.611 C236.336,176.786 236.093,176.82 235.716,176.712 C235.554,176.685 235.365,176.658 235.15,176.631 C234.934,176.604 234.665,176.597 234.341,176.611 C234.018,176.624 233.62,176.645 233.149,176.672 C232.677,176.699 232.104,176.752 231.43,176.833 C230.379,176.941 229.099,177.062 227.589,177.197 L227.589,182.655 M207.779,176.348 C207.105,178.316 206.343,180.135 205.494,181.806 C204.645,183.477 203.655,185.162 202.523,186.86 C201.876,186.105 201.027,185.62 199.976,185.404 C200.73,184.65 201.499,183.74 202.28,182.675 C203.062,181.611 203.803,180.465 204.504,179.239 C205.205,178.012 205.838,176.746 206.404,175.438 C206.97,174.131 207.428,172.858 207.779,171.618 C206.296,171.618 205.05,171.652 204.039,171.719 C203.028,171.786 202.145,171.86 201.391,171.941 L201.391,169.394 C202.145,169.475 203.062,169.549 204.14,169.617 C205.218,169.684 206.431,169.718 207.779,169.718 L207.779,163.734 C206.889,163.869 206.027,164.003 205.191,164.138 C204.356,164.273 203.628,164.367 203.008,164.421 C202.927,163.559 202.482,162.723 201.674,161.915 C203.129,161.915 204.45,161.861 205.636,161.753 C206.822,161.645 207.913,161.504 208.911,161.328 C209.908,161.153 210.831,160.931 211.68,160.661 C212.529,160.392 213.345,160.068 214.126,159.691 C214.315,160.122 214.531,160.527 214.773,160.904 C215.016,161.281 215.245,161.578 215.46,161.793 C215.757,162.09 215.865,162.299 215.784,162.42 C215.703,162.541 215.555,162.575 215.339,162.521 C214.962,162.413 214.483,162.386 213.904,162.44 C213.324,162.494 212.711,162.615 212.064,162.804 C211.768,162.885 211.458,162.966 211.134,163.047 C210.811,163.128 210.461,163.208 210.083,163.289 L210.083,169.718 C211.296,169.718 212.415,169.684 213.439,169.617 C214.463,169.549 215.299,169.475 215.946,169.394 L215.946,171.941 C215.272,171.86 214.436,171.786 213.439,171.719 C212.442,171.652 211.323,171.618 210.083,171.618 L210.083,174.407 C210.488,174.758 210.952,175.169 211.478,175.641 C212.004,176.112 212.529,176.591 213.055,177.076 C213.58,177.561 214.072,178.039 214.531,178.511 C214.989,178.983 215.366,179.394 215.663,179.744 L213.762,181.604 C213.277,180.822 212.704,179.973 212.044,179.057 C211.384,178.141 210.73,177.332 210.083,176.631 L210.083,188.275 C210.083,189.272 210.11,190.377 210.164,191.59 C210.218,192.803 210.285,194.016 210.366,195.229 L207.455,195.229 C207.563,194.016 207.644,192.803 207.698,191.59 C207.752,190.377 207.779,189.272 207.779,188.275 L207.779,176.348 M271.213,165.27 C270.647,164.246 270.054,163.323 269.434,162.501 C268.815,161.679 268.087,160.863 267.251,160.055 L268.99,158.559 C269.825,159.475 270.62,160.398 271.375,161.328 C272.13,162.258 272.777,163.101 273.316,163.855 L271.213,165.27 M253.748,187.669 C255.041,187.345 256.349,186.974 257.669,186.557 C258.99,186.139 260.338,185.674 261.712,185.162 C261.631,185.647 261.598,186.098 261.611,186.516 C261.625,186.934 261.672,187.386 261.753,187.871 C260.54,188.167 259.105,188.531 257.447,188.962 C255.789,189.394 254.111,189.838 252.413,190.296 C250.715,190.755 249.098,191.206 247.562,191.651 C246.025,192.096 244.786,192.466 243.842,192.763 C243.734,192.143 243.586,191.59 243.398,191.105 C243.209,190.62 242.953,190.108 242.629,189.569 C244.085,189.434 245.567,189.252 247.077,189.023 C248.586,188.794 250.015,188.531 251.362,188.235 L251.362,175.297 C249.745,175.297 248.357,175.331 247.198,175.398 C246.039,175.465 245.015,175.566 244.125,175.701 L244.125,172.952 C245.123,173.087 246.248,173.188 247.501,173.255 C248.755,173.323 250.311,173.356 252.171,173.356 C254.031,173.356 255.601,173.323 256.881,173.255 C258.161,173.188 259.287,173.087 260.257,172.952 L260.257,175.701 C259.421,175.566 258.485,175.472 257.447,175.418 C256.409,175.364 255.176,175.324 253.748,175.297 L253.748,187.669 M262.238,166.2 C262.211,164.637 262.184,163.357 262.157,162.359 C262.13,161.362 262.096,160.56 262.056,159.954 C262.016,159.347 261.968,158.869 261.914,158.518 C261.861,158.168 261.807,157.845 261.753,157.548 C262.373,157.71 262.918,157.824 263.39,157.892 C263.862,157.959 264.367,157.993 264.906,157.993 C265.742,157.993 265.85,158.303 265.23,158.923 C265.122,159.004 265.028,159.26 264.947,159.691 C264.866,160.122 264.798,160.661 264.745,161.308 C264.691,161.955 264.65,162.703 264.623,163.552 C264.596,164.401 264.583,165.284 264.583,166.2 C267.251,166.2 269.488,166.16 271.294,166.079 C273.1,165.998 274.636,165.877 275.903,165.715 L275.903,168.545 C274.663,168.437 273.127,168.363 271.294,168.323 C269.461,168.282 267.224,168.262 264.583,168.262 C264.61,170.095 264.67,171.739 264.765,173.195 C264.859,174.65 264.98,175.944 265.129,177.076 C265.277,178.208 265.452,179.212 265.654,180.088 C265.856,180.964 266.065,181.739 266.281,182.413 C267.036,184.677 267.898,186.449 268.868,187.729 C269.839,189.009 270.782,189.919 271.699,190.458 C272.211,190.755 272.622,190.95 272.932,191.044 C273.242,191.139 273.498,191.085 273.7,190.883 C273.902,190.681 274.05,190.303 274.145,189.751 C274.239,189.198 274.326,188.41 274.407,187.386 C275.189,188.194 276.065,188.679 277.035,188.841 C276.712,190.27 276.368,191.395 276.004,192.217 C275.64,193.039 275.243,193.618 274.812,193.955 C274.38,194.292 273.902,194.42 273.376,194.339 C272.851,194.259 272.278,194.03 271.658,193.652 C269.825,192.574 268.235,191.071 266.887,189.144 C265.54,187.217 264.515,184.946 263.815,182.332 C263.653,181.712 263.491,180.991 263.33,180.169 C263.168,179.347 263.013,178.376 262.865,177.258 C262.716,176.139 262.595,174.845 262.501,173.377 C262.406,171.908 262.332,170.203 262.278,168.262 L253.95,168.262 C251.847,168.262 250.136,168.262 248.815,168.262 C247.494,168.262 246.396,168.269 245.52,168.282 C244.644,168.296 243.91,168.323 243.317,168.363 C242.724,168.404 242.104,168.451 241.457,168.505 L241.457,165.715 C242.104,165.796 242.771,165.87 243.458,165.937 C244.145,166.005 244.954,166.059 245.884,166.099 C246.814,166.14 247.912,166.167 249.179,166.18 C250.446,166.193 251.996,166.2 253.828,166.2 L262.238,166.2 M292.439,183.1 L285.283,183.1 L285.283,188.76 L292.439,188.76 L292.439,183.1 M294.339,177.884 C293.962,177.858 293.598,177.831 293.248,177.804 C292.897,177.777 292.507,177.75 292.075,177.723 C291.644,177.696 291.159,177.682 290.62,177.682 C290.081,177.682 289.461,177.682 288.76,177.682 C288.032,177.682 287.406,177.682 286.88,177.682 C286.354,177.682 285.876,177.696 285.445,177.723 C285.013,177.75 284.616,177.777 284.252,177.804 C283.888,177.831 283.531,177.858 283.181,177.884 L283.181,175.54 C283.531,175.593 283.888,175.627 284.252,175.641 C284.616,175.654 285.013,175.674 285.445,175.701 C285.876,175.728 286.361,175.742 286.9,175.742 C287.439,175.742 288.059,175.742 288.76,175.742 C289.461,175.742 290.081,175.742 290.62,175.742 C291.159,175.742 291.644,175.728 292.075,175.701 C292.507,175.674 292.897,175.654 293.248,175.641 C293.598,175.627 293.962,175.593 294.339,175.54 L294.339,177.884 M294.501,172.467 C294.124,172.413 293.767,172.373 293.43,172.346 C293.093,172.319 292.715,172.298 292.298,172.285 C291.88,172.271 291.401,172.265 290.862,172.265 C290.323,172.265 289.676,172.265 288.922,172.265 C288.167,172.265 287.513,172.265 286.961,172.265 C286.408,172.265 285.916,172.278 285.485,172.305 C285.054,172.332 284.656,172.359 284.292,172.386 C283.929,172.413 283.558,172.44 283.181,172.467 L283.181,170.122 C283.558,170.149 283.929,170.176 284.292,170.203 C284.656,170.23 285.054,170.25 285.485,170.263 C285.916,170.277 286.408,170.29 286.961,170.304 C287.513,170.317 288.167,170.324 288.922,170.324 C289.676,170.324 290.323,170.324 290.862,170.324 C291.401,170.324 291.88,170.311 292.298,170.284 C292.715,170.257 293.093,170.236 293.43,170.223 C293.767,170.21 294.124,170.176 294.501,170.122 L294.501,172.467 M297.048,167.171 C296.644,167.117 296.145,167.069 295.552,167.029 C294.959,166.989 294.306,166.955 293.591,166.928 C292.877,166.901 292.122,166.881 291.327,166.867 C290.532,166.854 289.757,166.847 289.003,166.847 C287.466,166.847 285.977,166.874 284.535,166.928 C283.093,166.982 281.941,167.063 281.078,167.171 L281.078,164.704 C281.941,164.785 283.1,164.853 284.555,164.906 C286.011,164.96 287.493,164.987 289.003,164.987 C289.757,164.987 290.532,164.981 291.327,164.967 C292.122,164.954 292.877,164.933 293.591,164.906 C294.306,164.879 294.959,164.853 295.552,164.826 C296.145,164.799 296.644,164.758 297.048,164.704 L297.048,167.171 M289.003,164.502 C288.76,163.99 288.531,163.539 288.315,163.148 C288.1,162.757 287.871,162.373 287.628,161.995 C287.385,161.618 287.109,161.227 286.799,160.823 C286.489,160.419 286.119,159.947 285.687,159.408 L287.385,158.033 C287.871,158.626 288.282,159.132 288.618,159.549 C288.955,159.967 289.252,160.365 289.508,160.742 C289.764,161.119 290.013,161.51 290.256,161.915 C290.498,162.319 290.781,162.791 291.105,163.33 L289.003,164.502 M305.902,188.881 C305.282,189.447 304.656,189.987 304.022,190.499 C303.389,191.011 302.695,191.516 301.94,192.015 C301.185,192.513 300.35,193.032 299.434,193.571 C298.517,194.11 297.479,194.69 296.32,195.31 C296.078,194.636 295.815,194.117 295.532,193.753 C295.249,193.389 294.744,193.046 294.016,192.722 L294.42,192.641 L292.439,192.641 L292.439,190.66 L285.283,190.66 L285.283,193.571 L282.776,193.571 C282.857,192.709 282.918,191.846 282.958,190.984 C282.999,190.121 283.019,189.367 283.019,188.72 L283.019,185.526 C283.019,184.502 283.005,183.572 282.979,182.736 C282.952,181.901 282.911,181.294 282.857,180.917 C284.906,181.078 286.846,181.159 288.679,181.159 C289.973,181.159 291.091,181.139 292.035,181.099 C292.978,181.058 293.895,180.984 294.784,180.876 C294.73,181.308 294.69,181.894 294.663,182.635 C294.636,183.376 294.622,184.34 294.622,185.526 L294.622,187.871 C294.622,188.464 294.643,189.205 294.683,190.094 C294.723,190.984 294.771,191.806 294.824,192.561 C295.606,192.372 296.368,192.129 297.109,191.833 C297.85,191.536 298.605,191.179 299.373,190.761 C300.141,190.344 300.923,189.858 301.718,189.306 C302.513,188.753 303.369,188.1 304.285,187.345 C302.991,186.051 301.947,184.697 301.152,183.282 C300.357,181.867 299.649,180.27 299.029,178.491 C298.571,178.518 298.14,178.545 297.735,178.572 C297.331,178.599 296.859,178.639 296.32,178.693 L296.32,176.267 C297.533,176.348 298.888,176.409 300.384,176.449 C301.88,176.49 303.598,176.51 305.538,176.51 C307.479,176.51 309.15,176.49 310.552,176.449 C311.953,176.409 313.261,176.348 314.473,176.267 C313.8,177.804 313.2,179.104 312.674,180.169 C312.149,181.233 311.623,182.177 311.098,182.999 C310.572,183.821 310.019,184.576 309.44,185.263 C308.86,185.95 308.193,186.671 307.439,187.426 C308.086,187.911 308.833,188.383 309.682,188.841 C310.532,189.299 311.435,189.71 312.391,190.074 C313.348,190.438 314.325,190.755 315.323,191.024 C316.32,191.294 317.29,191.482 318.233,191.59 C316.994,192.318 316.279,193.288 316.091,194.501 C313.827,193.612 311.859,192.716 310.188,191.813 C308.517,190.91 307.088,189.933 305.902,188.881 M305.821,186.011 C306.414,185.418 306.953,184.852 307.439,184.313 C307.924,183.774 308.369,183.214 308.773,182.635 C309.177,182.055 309.561,181.422 309.925,180.735 C310.289,180.047 310.66,179.273 311.037,178.41 L301.091,178.41 C301.307,179.326 301.785,180.418 302.526,181.685 C303.268,182.952 304.366,184.394 305.821,186.011 M317.384,170.931 C317.088,171.389 316.879,171.86 316.758,172.346 C316.636,172.831 316.576,173.262 316.576,173.639 C315.848,173.639 315.12,173.633 314.393,173.619 C313.665,173.606 312.991,173.572 312.371,173.518 C311.616,173.464 310.976,173.37 310.451,173.235 C309.925,173.1 309.494,172.878 309.157,172.568 C308.82,172.258 308.571,171.833 308.409,171.294 C308.247,170.755 308.166,170.041 308.166,169.152 L308.166,162.925 L301.981,162.925 C302.008,164.543 301.927,165.964 301.738,167.191 C301.549,168.417 301.246,169.502 300.828,170.445 C300.411,171.389 299.885,172.218 299.252,172.932 C298.618,173.646 297.884,174.313 297.048,174.933 C296.752,174.475 296.415,174.098 296.037,173.801 C295.66,173.505 295.148,173.275 294.501,173.114 C295.957,172.521 297.116,171.739 297.978,170.769 C298.841,169.798 299.366,168.437 299.555,166.685 C299.69,165.445 299.71,164.334 299.615,163.35 C299.521,162.366 299.366,161.483 299.151,160.702 C299.555,160.756 299.952,160.803 300.343,160.843 C300.734,160.884 301.159,160.917 301.617,160.944 C302.075,160.971 302.587,160.991 303.153,161.005 C303.719,161.018 304.406,161.025 305.215,161.025 C306.374,161.025 307.385,161.005 308.247,160.965 C309.11,160.924 309.959,160.836 310.794,160.702 C310.714,161.106 310.66,161.531 310.633,161.975 C310.606,162.42 310.579,162.952 310.552,163.572 C310.525,164.192 310.518,164.947 310.532,165.836 C310.545,166.726 310.552,167.831 310.552,169.152 C310.552,169.583 310.592,169.926 310.673,170.183 C310.754,170.439 310.916,170.647 311.158,170.809 C311.401,170.971 311.738,171.085 312.169,171.153 C312.6,171.22 313.166,171.267 313.867,171.294 C314.406,171.321 314.986,171.301 315.606,171.234 C316.225,171.166 316.818,171.065 317.384,170.931 M329.837,164.704 C329.675,164.03 329.527,163.471 329.392,163.026 C329.257,162.582 329.116,162.171 328.968,161.793 C328.819,161.416 328.644,161.052 328.442,160.702 C328.24,160.351 327.977,159.947 327.654,159.489 L329.877,158.357 C330.174,158.896 330.423,159.368 330.625,159.772 C330.827,160.176 331.016,160.58 331.191,160.985 C331.366,161.389 331.528,161.82 331.676,162.278 C331.825,162.737 332.007,163.289 332.222,163.936 L329.837,164.704 M326.643,194.137 L324.096,194.137 C324.177,193.275 324.237,192.358 324.278,191.388 C324.318,190.418 324.338,189.609 324.338,188.962 L324.338,184.717 C324.338,183.693 324.325,182.797 324.298,182.029 C324.271,181.26 324.231,180.688 324.177,180.31 C325.228,180.391 326.292,180.452 327.371,180.492 C328.449,180.533 329.473,180.553 330.443,180.553 C331.306,180.553 332.296,180.526 333.415,180.472 C334.534,180.418 335.551,180.351 336.467,180.27 C336.414,180.701 336.373,181.254 336.346,181.927 C336.319,182.601 336.306,183.531 336.306,184.717 L336.306,187.79 C336.306,188.086 336.312,188.45 336.326,188.881 C336.339,189.313 336.353,189.764 336.366,190.236 C336.38,190.708 336.4,191.172 336.427,191.631 C336.454,192.089 336.481,192.507 336.508,192.884 L334.001,192.884 L334.001,190.458 L326.643,190.458 L326.643,194.137 M334.001,182.372 L326.643,182.372 L326.643,188.598 L334.001,188.598 L334.001,182.372 M336.872,177.44 C336.117,177.386 335.147,177.339 333.961,177.298 C332.775,177.258 331.454,177.238 329.999,177.238 C328.543,177.238 327.33,177.251 326.36,177.278 C325.39,177.305 324.527,177.359 323.772,177.44 L323.772,175.297 C324.527,175.378 325.39,175.432 326.36,175.459 C327.33,175.486 328.543,175.499 329.999,175.499 C331.454,175.499 332.775,175.479 333.961,175.438 C335.147,175.398 336.117,175.351 336.872,175.297 L336.872,177.44 M336.912,172.588 C336.13,172.507 335.207,172.453 334.143,172.426 C333.078,172.399 331.764,172.386 330.201,172.386 C328.664,172.386 327.431,172.393 326.501,172.406 C325.572,172.42 324.729,172.48 323.975,172.588 L323.975,170.445 C324.729,170.553 325.572,170.614 326.501,170.627 C327.431,170.641 328.664,170.647 330.201,170.647 C331.764,170.647 333.078,170.634 334.143,170.607 C335.207,170.58 336.13,170.526 336.912,170.445 L336.912,172.588 M338.731,167.656 C338.327,167.602 337.822,167.555 337.215,167.514 C336.609,167.474 335.942,167.44 335.214,167.413 C334.486,167.386 333.718,167.366 332.91,167.352 C332.101,167.339 331.306,167.332 330.524,167.332 C329.743,167.332 328.954,167.339 328.159,167.352 C327.364,167.366 326.602,167.386 325.875,167.413 C325.147,167.44 324.466,167.474 323.833,167.514 C323.2,167.555 322.667,167.602 322.236,167.656 L322.236,165.23 C322.667,165.284 323.2,165.324 323.833,165.351 C324.466,165.378 325.154,165.405 325.895,165.432 C326.636,165.459 327.398,165.479 328.179,165.493 C328.961,165.506 329.743,165.513 330.524,165.513 C331.306,165.513 332.101,165.506 332.91,165.493 C333.718,165.479 334.486,165.459 335.214,165.432 C335.942,165.405 336.609,165.378 337.215,165.351 C337.822,165.324 338.327,165.284 338.731,165.23 L338.731,167.656 M349.284,171.294 C350.281,171.294 351.191,171.281 352.013,171.254 C352.835,171.227 353.589,171.2 354.277,171.173 C354.964,171.146 355.611,171.112 356.217,171.072 C356.824,171.032 357.41,170.984 357.976,170.931 L357.976,173.68 C357.41,173.626 356.824,173.572 356.217,173.518 C355.611,173.464 354.964,173.424 354.277,173.397 C353.589,173.37 352.835,173.35 352.013,173.336 C351.191,173.323 350.281,173.316 349.284,173.316 L349.284,188.275 C349.284,189.272 349.304,190.33 349.344,191.449 C349.385,192.567 349.472,193.935 349.607,195.552 L346.534,195.552 C346.669,193.935 346.757,192.567 346.797,191.449 C346.838,190.33 346.858,189.272 346.858,188.275 L346.858,173.316 C344.971,173.343 343.354,173.383 342.006,173.437 C340.659,173.491 339.446,173.572 338.368,173.68 L338.368,170.931 C339.473,171.011 340.699,171.085 342.047,171.153 C343.394,171.22 344.998,171.267 346.858,171.294 L346.858,164.179 C346.858,162.696 346.824,161.47 346.757,160.5 C346.689,159.529 346.561,158.694 346.373,157.993 C347.02,158.155 347.592,158.269 348.091,158.337 C348.59,158.404 349.082,158.411 349.567,158.357 C349.944,158.303 350.166,158.404 350.234,158.66 C350.301,158.916 350.187,159.138 349.89,159.327 C349.674,159.462 349.52,159.799 349.425,160.338 C349.331,160.877 349.284,161.537 349.284,162.319 L349.284,171.294 M391.21,163.208 L385.63,163.208 L385.63,175.459 L391.21,175.459 L391.21,163.208 M393.555,187.669 C393.555,188.666 393.581,189.771 393.635,190.984 C393.689,192.197 393.784,193.41 393.918,194.622 L390.846,194.622 C390.981,193.41 391.075,192.197 391.129,190.984 C391.183,189.771 391.21,188.666 391.21,187.669 L391.21,177.561 L385.63,177.561 C385.576,179.556 385.442,181.348 385.226,182.938 C385.01,184.528 384.653,186.004 384.155,187.365 C383.656,188.726 382.996,190.034 382.174,191.287 C381.351,192.54 380.32,193.841 379.081,195.189 C378.757,194.811 378.366,194.461 377.908,194.137 C377.45,193.814 376.951,193.585 376.412,193.45 C377.733,192.345 378.831,191.233 379.707,190.115 C380.583,188.996 381.284,187.81 381.81,186.557 C382.335,185.303 382.713,183.942 382.942,182.473 C383.171,181.004 383.299,179.367 383.326,177.561 C382.436,177.561 381.607,177.581 380.839,177.622 C380.071,177.662 379.215,177.736 378.272,177.844 L378.272,175.176 C379.215,175.283 380.078,175.358 380.86,175.398 C381.641,175.438 382.463,175.459 383.326,175.459 L383.326,163.208 C382.517,163.235 381.81,163.269 381.203,163.309 C380.597,163.35 379.984,163.424 379.364,163.532 L379.364,160.863 C380.469,160.971 381.756,161.052 383.225,161.106 C384.694,161.16 386.452,161.187 388.501,161.187 C390.576,161.187 392.348,161.16 393.817,161.106 C395.286,161.052 396.573,160.971 397.678,160.863 L397.678,163.532 C396.519,163.316 395.145,163.208 393.555,163.208 L393.555,175.459 C394.282,175.459 394.916,175.452 395.455,175.438 C395.994,175.425 396.486,175.411 396.93,175.398 C397.375,175.385 397.8,175.358 398.204,175.317 C398.608,175.277 399.04,175.23 399.498,175.176 L399.498,177.844 C399.04,177.79 398.608,177.743 398.204,177.703 C397.8,177.662 397.375,177.635 396.93,177.622 C396.486,177.608 395.994,177.595 395.455,177.581 C394.916,177.568 394.282,177.561 393.555,177.561 L393.555,187.669 M374.512,173.922 L368.771,173.922 L368.771,185.404 L374.512,185.404 L374.512,173.922 M366.426,177.359 C366.049,178.087 365.644,178.828 365.213,179.583 C364.782,180.337 364.337,181.078 363.879,181.806 C363.448,181.402 363.084,181.092 362.787,180.876 C362.491,180.661 362.087,180.459 361.574,180.27 C363.623,177.925 365.206,175.351 366.325,172.548 C367.443,169.745 368.191,166.685 368.569,163.37 C367.895,163.37 367.302,163.377 366.79,163.39 C366.278,163.404 365.799,163.424 365.355,163.451 C364.91,163.478 364.485,163.512 364.081,163.552 C363.677,163.592 363.246,163.64 362.787,163.694 L362.787,161.106 C363.326,161.187 363.839,161.248 364.324,161.288 C364.809,161.328 365.328,161.355 365.88,161.369 C366.433,161.382 367.066,161.396 367.78,161.409 C368.495,161.423 369.364,161.429 370.388,161.429 C371.412,161.429 372.275,161.423 372.976,161.409 C373.676,161.396 374.296,161.382 374.835,161.369 C375.375,161.355 375.873,161.328 376.331,161.288 C376.79,161.248 377.288,161.187 377.827,161.106 L377.827,163.694 C377.315,163.613 376.837,163.552 376.392,163.512 C375.947,163.471 375.469,163.444 374.957,163.431 C374.445,163.417 373.865,163.404 373.218,163.39 C372.571,163.377 371.776,163.37 370.833,163.37 C370.536,164.906 370.213,166.396 369.863,167.838 C369.512,169.28 369.148,170.607 368.771,171.82 C369.526,171.82 370.348,171.82 371.237,171.82 C372.127,171.82 372.976,171.82 373.784,171.82 C374.593,171.82 375.3,171.813 375.907,171.8 C376.513,171.786 376.897,171.78 377.059,171.78 C377.005,172.103 376.958,172.494 376.918,172.952 C376.877,173.41 376.857,173.909 376.857,174.448 L376.857,186.577 C376.857,187.116 376.864,187.662 376.877,188.214 C376.891,188.767 376.911,189.38 376.938,190.054 L374.512,190.054 L374.512,187.426 L368.771,187.426 L368.771,191.024 L366.224,191.024 C366.278,190.323 366.325,189.623 366.365,188.922 C366.406,188.221 366.426,187.493 366.426,186.739 L366.426,177.359 M414.78,165.149 C415.212,165.392 415.596,165.574 415.933,165.695 C416.269,165.816 416.707,165.931 417.247,166.038 C417.624,166.092 417.806,166.214 417.792,166.402 C417.779,166.591 417.57,166.753 417.166,166.888 C417.004,166.941 416.802,167.076 416.559,167.292 C416.317,167.507 416.061,167.831 415.791,168.262 C414.875,169.772 413.635,171.139 412.071,172.366 C410.508,173.592 408.541,174.744 406.169,175.823 C405.953,175.31 405.697,174.893 405.401,174.569 C405.104,174.246 404.713,173.909 404.228,173.558 C405.657,173.127 406.91,172.662 407.988,172.164 C409.066,171.665 410.023,171.092 410.859,170.445 C411.694,169.798 412.422,169.044 413.042,168.181 C413.662,167.319 414.241,166.308 414.78,165.149 M418.379,179.785 C418.163,181.483 417.759,183.073 417.166,184.555 C416.573,186.038 415.751,187.406 414.699,188.659 C413.648,189.912 412.328,191.065 410.737,192.116 C409.147,193.167 407.26,194.097 405.077,194.906 C404.835,194.366 404.578,193.922 404.309,193.571 C404.039,193.221 403.595,192.857 402.975,192.48 C405.158,191.887 407.024,191.186 408.574,190.377 C410.124,189.569 411.411,188.639 412.435,187.588 C413.46,186.536 414.255,185.364 414.821,184.07 C415.387,182.776 415.778,181.348 415.993,179.785 C413.972,179.785 412.2,179.825 410.677,179.906 C409.154,179.987 407.921,180.095 406.977,180.229 L406.977,177.359 C408.002,177.467 409.255,177.554 410.737,177.622 C412.22,177.689 414.039,177.723 416.195,177.723 C416.249,177.103 416.296,176.55 416.337,176.065 C416.377,175.58 416.398,175.115 416.398,174.67 C416.398,174.226 416.384,173.788 416.357,173.356 C416.33,172.925 416.303,172.467 416.276,171.982 C416.896,172.143 417.435,172.258 417.893,172.325 C418.352,172.393 418.904,172.44 419.551,172.467 C419.875,172.494 420.05,172.575 420.077,172.709 C420.104,172.844 419.969,173.019 419.672,173.235 C419.538,173.316 419.416,173.43 419.308,173.579 C419.201,173.727 419.106,173.963 419.025,174.286 C418.945,174.61 418.87,175.041 418.803,175.58 C418.736,176.119 418.662,176.833 418.581,177.723 C421.599,177.723 423.978,177.696 425.717,177.642 C427.455,177.588 428.796,177.494 429.739,177.359 C429.605,178.141 429.477,178.915 429.355,179.684 C429.234,180.452 429.133,181.26 429.052,182.109 C428.971,182.958 428.897,183.868 428.83,184.838 C428.762,185.809 428.715,186.873 428.688,188.032 C428.661,188.787 428.729,189.4 428.89,189.872 C429.052,190.344 429.301,190.708 429.638,190.964 C429.975,191.22 430.386,191.388 430.871,191.469 C431.357,191.55 431.909,191.577 432.529,191.55 C433.149,191.523 433.668,191.449 434.086,191.327 C434.503,191.206 434.847,190.991 435.117,190.681 C435.386,190.371 435.609,189.939 435.784,189.387 C435.959,188.834 436.114,188.113 436.249,187.224 C437.03,188.032 437.92,188.477 438.917,188.558 C438.621,189.582 438.311,190.438 437.987,191.125 C437.664,191.813 437.253,192.358 436.754,192.763 C436.255,193.167 435.635,193.443 434.894,193.592 C434.153,193.74 433.23,193.814 432.125,193.814 C431.101,193.814 430.204,193.747 429.436,193.612 C428.668,193.477 428.035,193.255 427.536,192.945 C427.037,192.635 426.673,192.21 426.444,191.671 C426.215,191.132 426.114,190.431 426.141,189.569 C426.168,189.057 426.208,188.416 426.262,187.648 C426.316,186.88 426.377,186.051 426.444,185.162 C426.512,184.272 426.586,183.363 426.667,182.433 C426.748,181.503 426.828,180.62 426.909,179.785 L418.379,179.785 M406.573,164.583 L406.573,169.758 L404.188,169.758 L404.188,162.157 C404.861,162.238 405.596,162.299 406.391,162.339 C407.186,162.38 408.15,162.42 409.282,162.46 C410.414,162.501 411.775,162.528 413.365,162.541 C414.956,162.555 416.883,162.561 419.147,162.561 C418.796,161.942 418.379,161.315 417.893,160.682 C417.408,160.048 416.856,159.421 416.236,158.801 L418.54,157.346 C419.645,158.801 420.67,160.54 421.613,162.561 C423.554,162.561 425.272,162.555 426.768,162.541 C428.264,162.528 429.591,162.501 430.75,162.46 C431.909,162.42 432.92,162.38 433.782,162.339 C434.645,162.299 435.4,162.238 436.047,162.157 L436.047,170.001 L433.661,170.001 L433.661,164.583 L425.454,164.583 L425.454,169.758 C425.454,170.216 425.481,170.587 425.535,170.87 C425.589,171.153 425.723,171.375 425.939,171.537 C426.155,171.699 426.485,171.806 426.93,171.86 C427.374,171.914 427.987,171.941 428.769,171.941 C429.82,171.941 430.75,171.887 431.559,171.78 C432.367,171.672 433.122,171.497 433.823,171.254 C433.688,171.739 433.587,172.157 433.52,172.507 C433.452,172.858 433.392,173.302 433.338,173.841 C432.853,173.895 432.145,173.936 431.215,173.963 C430.285,173.99 429.093,174.003 427.637,174.003 C426.667,174.003 425.885,173.949 425.292,173.841 C424.699,173.734 424.248,173.558 423.938,173.316 C423.628,173.073 423.426,172.743 423.331,172.325 C423.237,171.908 423.19,171.375 423.19,170.728 L423.19,164.583 L406.573,164.583 M469.28,189.528 C471.867,189.528 474.057,189.495 475.85,189.427 C477.642,189.36 479.091,189.272 480.196,189.164 L480.196,191.995 C479.603,191.941 478.842,191.893 477.912,191.853 C476.982,191.813 475.971,191.772 474.88,191.732 C473.788,191.691 472.656,191.664 471.483,191.651 C470.311,191.637 469.172,191.631 468.067,191.631 C466.962,191.631 465.803,191.637 464.59,191.651 C463.377,191.664 462.205,191.691 461.073,191.732 C459.941,191.772 458.896,191.813 457.939,191.853 C456.982,191.893 456.208,191.941 455.615,191.995 L455.615,189.164 C456.154,189.218 456.834,189.266 457.656,189.306 C458.478,189.346 459.388,189.387 460.385,189.427 C461.383,189.468 462.42,189.495 463.498,189.508 C464.577,189.522 465.641,189.528 466.692,189.528 L466.692,172.952 C463,172.952 460.102,173.073 458,173.316 L458,170.486 C459.213,170.621 460.507,170.715 461.881,170.769 C463.256,170.823 464.86,170.85 466.692,170.85 L466.692,164.34 C466.692,162.669 466.672,161.409 466.632,160.56 C466.591,159.711 466.517,159.004 466.409,158.438 C467.649,158.653 468.727,158.761 469.644,158.761 C470.021,158.761 470.237,158.876 470.291,159.105 C470.345,159.334 470.183,159.597 469.806,159.893 C469.644,160.028 469.516,160.223 469.421,160.479 C469.327,160.735 469.28,161.012 469.28,161.308 L469.28,170.85 C471.221,170.85 472.892,170.823 474.293,170.769 C475.695,170.715 476.962,170.621 478.094,170.486 L478.094,173.316 C476.962,173.208 475.695,173.127 474.293,173.073 C472.892,173.019 471.221,172.979 469.28,172.952 L469.28,189.528 M450.035,177.965 C449.281,178.936 448.485,179.866 447.65,180.755 C446.814,181.644 445.884,182.534 444.86,183.423 C444.564,183.046 444.287,182.743 444.031,182.514 C443.775,182.285 443.297,181.981 442.596,181.604 C443.809,180.876 444.907,180.081 445.891,179.219 C446.875,178.356 447.798,177.399 448.661,176.348 C449.523,175.297 450.332,174.151 451.086,172.912 C451.841,171.672 452.582,170.311 453.31,168.828 C451.72,168.828 450.365,168.842 449.247,168.869 C448.128,168.896 447.178,168.929 446.397,168.97 C445.615,169.01 444.982,169.064 444.496,169.131 C444.011,169.199 443.62,169.273 443.324,169.354 L443.324,166.321 C444.025,166.456 444.887,166.551 445.911,166.604 C446.936,166.658 448.31,166.685 450.035,166.685 C453.378,166.685 455.736,166.564 457.111,166.321 C456.868,166.914 456.504,167.662 456.019,168.565 C455.534,169.468 454.981,170.418 454.361,171.416 C454.038,171.955 453.714,172.48 453.391,172.992 C453.068,173.505 452.758,174.003 452.461,174.488 L452.461,174.893 C453.512,175.647 454.644,176.503 455.857,177.46 C457.07,178.417 458.148,179.313 459.092,180.149 L457.111,182.008 C456.464,181.146 455.743,180.297 454.948,179.461 C454.152,178.626 453.324,177.844 452.461,177.116 L452.461,188.315 C452.461,189.528 452.481,190.654 452.522,191.691 C452.562,192.729 452.636,193.854 452.744,195.067 L449.752,195.067 C449.86,193.8 449.934,192.662 449.975,191.651 C450.015,190.64 450.035,189.528 450.035,188.315 L450.035,177.965 M453.27,164.906 C452.569,163.963 451.7,163.02 450.662,162.076 C449.624,161.133 448.526,160.27 447.367,159.489 L449.025,157.669 C450.022,158.424 451.053,159.28 452.117,160.237 C453.182,161.194 454.227,162.184 455.251,163.208 L453.27,164.906 Z" style="stroke:#000000;stroke-opacity:1;stroke-width:0;stroke-linejoin:bevel;stroke-miterlimit:2;stroke-linecap:square;fill-rule:nonzero;fill:#73b8e5;fill-opacity:1;"/>
        </g>
    </g>
</svg>
